<svg id="Layer_1" data-name="Layer 1" xmlns="http://www.w3.org/2000/svg" viewBox="0 0 354.97 354.97"><defs><style>.cls-1{fill:#321b5b;stroke-width:7px;}.cls-1,.cls-10,.cls-11,.cls-12,.cls-13,.cls-14,.cls-15,.cls-16,.cls-18,.cls-19,.cls-2,.cls-20,.cls-23,.cls-25,.cls-26,.cls-3,.cls-34,.cls-4,.cls-6,.cls-7,.cls-8,.cls-9{stroke:#1d1d1b;}.cls-1,.cls-10,.cls-11,.cls-12,.cls-13,.cls-14,.cls-15,.cls-16,.cls-17,.cls-18,.cls-19,.cls-2,.cls-20,.cls-21,.cls-22,.cls-23,.cls-25,.cls-26,.cls-27,.cls-28,.cls-29,.cls-3,.cls-30,.cls-31,.cls-32,.cls-33,.cls-34,.cls-4,.cls-5,.cls-6,.cls-7,.cls-8,.cls-9{stroke-miterlimit:10;}.cls-2,.cls-21,.cls-3,.cls-31,.cls-33,.cls-4{fill:none;}.cls-14,.cls-2,.cls-23,.cls-33,.cls-8{stroke-width:0.75px;}.cls-12,.cls-13,.cls-17,.cls-21,.cls-22,.cls-26,.cls-27,.cls-32,.cls-4,.cls-9{stroke-width:0.25px;}.cls-5{fill:#eac1c1;}.cls-17,.cls-21,.cls-22,.cls-27,.cls-5{stroke:#3c3c3b;}.cls-25,.cls-28,.cls-29,.cls-30,.cls-31,.cls-34,.cls-5{stroke-width:0.5px;}.cls-13,.cls-14,.cls-6{fill:#733646;}.cls-23,.cls-7{fill:#a6626f;}.cls-8{fill:#c18690;}.cls-10,.cls-9{fill:#785359;}.cls-11{fill:#bf7570;}.cls-12{fill:#595250;}.cls-15,.cls-25,.cls-26{fill:#d3cee8;}.cls-16{fill:#917c7e;}.cls-17{fill:#b8b1c4;opacity:0.67;}.cls-18{fill:#e2acac;}.cls-19{fill:#fdeff2;}.cls-20{fill:#1d1d1b;}.cls-22,.cls-28{fill:#a47e3e;}.cls-24{fill:#fff;}.cls-27,.cls-30{fill:#d4b489;}.cls-28,.cls-29,.cls-30,.cls-31{stroke:#000;}.cls-29{fill:#72572a;}.cls-32{fill:#fdfdfd;stroke:#f6f6f6;}.cls-33{stroke:#b8b1c4;stroke-dasharray:3 3;}.cls-34{fill:#f2958e;}</style></defs><circle class="cls-1" cx="177.49" cy="177.49" r="173.99"/><path class="cls-2" d="M122.87,230.11" transform="translate(-5.28 -5.47)"/><path class="cls-3" d="M55.34,234.21c-.88-4.5-1.45-8.75-2.34-13.1-2.06-10.18-9-21.75-11.35-25.38-.35-.54-.58-.91-.69-1.07.24.32.48.63.7,1C57.23,216.75,55.34,234.21,55.34,234.21Z" transform="translate(-5.28 -5.47)"/><path class="cls-4" d="M111.94,228.07c-.32-.63-.62-1.26-.91-1.88s-.68-1.51-1-2.24c-.14-.37-.29-.73-.43-1.09s-.38-1-.54-1.46c-.59-1.62-1.06-3.14-1.44-4.52a1.36,1.36,0,0,1,0-.17,1.42,1.42,0,0,1,0-.36A79,79,0,0,0,111.94,228.07Z" transform="translate(-5.28 -5.47)"/><path class="cls-2" d="M115.8,230.31c-.7.29-1.44.56-2.2.82l-.16.05a27.49,27.49,0,0,1-3.15.83h0l-.42.07-.35,0a14.79,14.79,0,0,1-6.82-.29h.09a31.47,31.47,0,0,0,4.83.27h.07c.38,0,.77-.08,1.16-.13s.64-.09,1-.15h0l1.07-.2c.32-.06.64-.14,1-.22l.15,0h0c.45-.1.9-.22,1.35-.35l.16,0Q114.66,230.69,115.8,230.31Z" transform="translate(-5.28 -5.47)"/><path class="cls-3" d="M121.74,225.82c-.52-.35-1-.7-1.51-1.06l0,0c-.41-.3-.8-.61-1.19-.93-.69-.55-1.35-1.12-2-1.71l-.67-.64a37,37,0,0,1-4.78-5.71c-.24-.35-.47-.69-.69-1a40.63,40.63,0,0,1-2.65-4.86q-.17-.35-.3-.66c-.38-.86-.71-1.7-1-2.51-.11-.31-.22-.62-.32-.92-.27-.8-.51-1.56-.71-2.29-.06-.2-.11-.39-.16-.58q-.28-1.1-.48-2l-.2-1c0-.19-.07-.37-.1-.54-.12-.72-.18-1.28-.22-1.64s0-.46,0-.46l.12.42A68.42,68.42,0,0,0,113.57,217,34.63,34.63,0,0,0,121.74,225.82Z" transform="translate(-5.28 -5.47)"/><path class="cls-2" d="M123.74,227.16l-.11.05-1.28.56h0l-1.54.65c-1.63.67-3.3,1.31-5,1.86a40.2,40.2,0,0,0,4.57-2.22l.77-.45,0,0,.39-.23c.63-.38,1-.66,1.2-.76l.07-.05.8.57Z" transform="translate(-5.28 -5.47)"/><path class="cls-5" d="M235.1,309.84c-4.25.41-23.66,2.55-31.22,7.67-8.5,5.76-36.39,2.78-36.39,2.78s22.76-7.28,23.78-13c0,0-46.3,15.47-74.05-2.73,0,0,19.34,1.59,26.61-2.5,0,0-36.13,1-62.64-31.33.58.49,14.68,12.25,31.33,0,0,0-16.12,4.14-35.55-7.57a70,70,0,0,0,16.28,6.37,25.74,25.74,0,0,0,9,1.16h.28l.33,0,.55,0,.66-.06.52-.05.44,0c2.61-.27,6.21-.8,7.46-1.71a133.14,133.14,0,0,0,15.85-13.19v0c.14-.24,1.54-2.74,3.55-6.52.87.42,1.38.61,1.38.61,9.65,4.61,22.67,6.56,40.23,3.05a113.32,113.32,0,0,1-12.75-3.2,64.1,64.1,0,0,0,7.92,1.46,65.39,65.39,0,0,0,12,.39c-4,4.52-3.71,8.19-3.71,8.19C195.69,310.34,229.41,310.24,235.1,309.84Z" transform="translate(-5.28 -5.47)"/><path class="cls-2" d="M112.53,268.76c-1.25.91-4.85,1.44-7.46,1.71A40.9,40.9,0,0,0,112.53,268.76Z" transform="translate(-5.28 -5.47)"/><path class="cls-6" d="M173.55,252.69c-17.56,3.51-30.58,1.56-40.23-3.05,0,0-.51-.19-1.38-.61,1.74-3.27,3.93-7.5,6.13-12.06l4.09,3.08a38.57,38.57,0,0,0,10.3,6.59l.09,0a50.57,50.57,0,0,0,8.25,2.81A113.32,113.32,0,0,0,173.55,252.69Z" transform="translate(-5.28 -5.47)"/><path class="cls-7" d="M252.08,241l-.42.26c-3.17,1.15-6.48,15.27-5.9,22.32.37,4.55,1.87,8.92,3,12.45a28.43,28.43,0,0,1,1.3,5c.43,3.75-6.05,10.23-6.05,10.23s.94-.11,1.66,1.86l0,.06a14.08,14.08,0,0,1,.65,3.26,18.62,18.62,0,0,1-1.05,5.58h0l-.24.7a.09.09,0,0,1,0,.07A21,21,0,0,1,242.4,307l0,0a0,0,0,0,0,0,0l.06,0a1.19,1.19,0,0,1,.49.65,1.45,1.45,0,0,1,.13.57h0a7.72,7.72,0,0,1-.83,1.59s-22.75-7.43-37.84-21.93l0,0c-11.74-11.29-18.84-26.86-6.92-46.54,0,0,0,0,0,0s6.23-9.67,22.14-12.84c1.45-.29,3-.53,4.59-.7,1.25-.13,2.56-.22,3.92-.27h.1l13.32,9.88L240,234.66a40.44,40.44,0,0,0-13.25-22c-1.06-4.22-1.39-4.23-2.26-8S227,190,227,190a2.62,2.62,0,0,1,1.46-.27c-.26,1.25-.41,2.25-.41,2.25s1.31,3.85,4.66.65c0,0,0-.32.06-.83a17.63,17.63,0,0,1,1.47,1.37,22.32,22.32,0,0,0-1.53,3s.24,5.18,4.95,3.43c0,0-.14-1.24-.39-2.72.45.64.92,1.32,1.4,2.07,7.49,11.67,11.81,27.95,11.81,27.95a61.36,61.36,0,0,1,2.05,8.39C253,237.79,253,240.13,252.08,241Z" transform="translate(-5.28 -5.47)"/><path class="cls-3" d="M228.08,227.57c-1.36.05-2.67.14-3.92.27A35.92,35.92,0,0,1,228.08,227.57Z" transform="translate(-5.28 -5.47)"/><path class="cls-3" d="M206.72,232.4A133.93,133.93,0,0,0,193.59,240c-1.86,1.22-3.72,2.55-5.47,3.92q2.56-2.24,5.15-4.07A66.85,66.85,0,0,1,206.72,232.4Z" transform="translate(-5.28 -5.47)"/><path class="cls-2" d="M115.8,230.31c-.7.29-1.44.56-2.2.82l-.16.05a27.49,27.49,0,0,1-3.15.83h0l-.42.07-.35,0a14.79,14.79,0,0,1-6.82-.29h.09a13.4,13.4,0,0,0,3.59.34c.41,0,.82,0,1.24-.07h.07c.38,0,.77-.08,1.16-.13s.64-.09,1-.15h0l1.07-.2c.32-.06.64-.14,1-.22l.15,0h0c.45-.1.9-.22,1.35-.35l.16,0Q114.66,230.69,115.8,230.31Z" transform="translate(-5.28 -5.47)"/><path class="cls-8" d="M107.14,307.74a118.82,118.82,0,0,1-27.3-26.85A206.65,206.65,0,0,0,107.14,307.74Z" transform="translate(-5.28 -5.47)"/><path class="cls-8" d="M107.24,307.82a101.66,101.66,0,0,0,21.57,11.48C119.13,315.78,111.42,311.72,107.24,307.82Z" transform="translate(-5.28 -5.47)"/><path class="cls-8" d="M128.81,319.3c3.66,1.33,7.6,2.59,11.74,3.73A97.65,97.65,0,0,1,128.81,319.3Z" transform="translate(-5.28 -5.47)"/><path class="cls-6" d="M242.21,309.9c-1.93,2.49-8.24,6.89-26.55,14.22-20.73,8.3-51.21,5.51-75.11-1.09,24.5,6.18,55.84,4.46,95.33-13.25Z" transform="translate(-5.28 -5.47)"/><path class="cls-3" d="M89.34,205c-.42.12-.84.24-1.25.34l-.37.09a40.68,40.68,0,0,1-7.34,1.1H80c-1.36.07-2.67.07-3.9,0l4.14-.49.39-.05,5-.59h0l2.12-.25.36,0Z" transform="translate(-5.28 -5.47)"/><path class="cls-3" d="M104.73,197.64l-1.49.84h0c-.6.33-1.32.73-2.18,1.18l3.66-2.49S104.7,197.34,104.73,197.64Z" transform="translate(-5.28 -5.47)"/><path class="cls-2" d="M110.26,232c-.94.07-1.81.1-2.6.11" transform="translate(-5.28 -5.47)"/><path class="cls-3" d="M40.91,194.58h0l-1.8-2.42.07,0c.38.2,2.21,1.15,4.19,2h0a13.82,13.82,0,0,0,4.82,1.39l.46,0h.12l.37,0" transform="translate(-5.28 -5.47)"/><path class="cls-3" d="M49.27,195.51h-.13l-.37,0h-.12l-.46,0,9.43,5.16" transform="translate(-5.28 -5.47)"/><path class="cls-9" d="M127.82,202a15.53,15.53,0,0,1,1.56-3.2l-1.26,3-.57,1.36A4.7,4.7,0,0,1,127.82,202Z" transform="translate(-5.28 -5.47)"/><path class="cls-9" d="M129.38,198.82h0Z" transform="translate(-5.28 -5.47)"/><path class="cls-9" d="M149.39,206.35l3.31-1.54a0,0,0,0,0,0,0s-1.05,3.75-5.55,9.91A44,44,0,0,0,149.39,206.35Z" transform="translate(-5.28 -5.47)"/><path class="cls-10" d="M157.61,193.56c-.24.59-.49,1.18-.73,1.76l0,.09-8.64,4.26-.57.27,0,0-9.1,4.48L133.36,207h0s.09.14.16.25c.25.43.5.83.75,1.19l.16.22.28.39.4.5v0c.08.09.15.18.24.27l-.11.11c-.61.6-1.26,1.25-1.93,1.94l-.06.1L124.5,227l-.63-.18-.49-.15h0l-.49-.14s0,0,0,.1h0c0,.08,0,.19,0,.28a1.5,1.5,0,0,1,0,.18.37.37,0,0,1-.08-.15c-.05-.09-.1-.22-.15-.33a.83.83,0,0,0-.12-.24l-.49-.32,0,0-.36-.25a34.63,34.63,0,0,1-8.17-8.83c-.25-.41-.56-.88-.9-1.38a0,0,0,0,1,0,0,2,2,0,0,1-.16-.26l0,0,0-.06-.12-.19c0-.06-.07-.11-.1-.16a20.33,20.33,0,0,1-1.68-2.9h0l-.09-.21h0a5.27,5.27,0,0,1-.19-.51,13.6,13.6,0,0,0,5.15.87,10.18,10.18,0,0,0,2.16-.43c2.92-.91,8.09-6.41,9.58-8l-6.46,7.58c.09,0,.64-.24,1.53-.63l.63-.28.35-.16.76-.34c1-.48,2.26-1.08,3.6-1.79l.56-.29.91-.5.82-.46.27-.16,1.12-.65.89-.54.24-.15h0l.06,0c.58-.36,1.18-.74,1.77-1.15s.93-.63,1.39-1,1.15-.85,1.72-1.29l.94-.76.17-.14c.32-.26.63-.53.94-.81a33,33,0,0,0,2.67-2.62c.16-.17.32-.34.46-.52a22,22,0,0,0,2.94-4.25,4.11,4.11,0,0,0,.21-.42l.09-.19q.18-.37.33-.75a6.44,6.44,0,0,0,.24-.61,13.74,13.74,0,0,0,.54-1.87c0-.22.09-.43.12-.62a9.81,9.81,0,0,0,.13-1.08,5.34,5.34,0,0,0,0-.55h0a.49.49,0,0,0,0-.12,1.69,1.69,0,0,0,0-.23,1.2,1.2,0,0,0,0-.2,3.21,3.21,0,0,0-.08-.36.38.38,0,0,0-.05-.15l-.06-.14a1.38,1.38,0,0,0-.14-.24,1,1,0,0,0-.14-.15l-.06-.05a.57.57,0,0,0-.13-.08l0,0-.05,0a.88.88,0,0,0-.23-.07,1.53,1.53,0,0,0-.3,0l-.23,0-.29,0a2.21,2.21,0,0,0-.47.13l-.37.15a5.48,5.48,0,0,0-.6.29l-.32.18-.47.28a5,5,0,0,0-.51.34l-.41.28-.64.47c-.22.16-.44.34-.66.52l-.26.21-.75.62-.69.6-.34.3-.62.57c-.95.86-1.89,1.77-2.79,2.67-.22.21-.44.43-.65.65s-.7.71-1,1.06h0l0,.05h0l-.47.5-.46.48-.85.9-.48.52-1.12,1.22,0,.05-.34.38-.13.15c-.16.17-.26.29-.31.35.21-.36.46-.74.74-1.15l0,0c.53-.76,1.17-1.59,1.93-2.5h0l0,0a59.39,59.39,0,0,1,6.14-6.21c.69-.62,1.37-1.18,2-1.69a24.25,24.25,0,0,1,7.8-4.21,12.21,12.21,0,0,1,6-.38l.22.05h0a5,5,0,0,1,1.23.43,11.5,11.5,0,0,1,1.86,3A9.54,9.54,0,0,1,157.61,193.56Z" transform="translate(-5.28 -5.47)"/><path class="cls-4" d="M121.74,225.82c-.52-.35-1-.7-1.51-1.06l0,0a28.31,28.31,0,0,1-6.61-7.73A34.63,34.63,0,0,0,121.74,225.82Z" transform="translate(-5.28 -5.47)"/><path class="cls-2" d="M123.68,227.13c-.13-.07-.43-.24-.87-.52l.07-.05Z" transform="translate(-5.28 -5.47)"/><path class="cls-10" d="M206.73,232.82h0c-4.27,2-14.62,7.9-14.62,7.9-1.33,1-2.66,2.06-4,3.21A34.33,34.33,0,0,0,181,251.1l0,0-.16.18,0,0h0a65.39,65.39,0,0,1-12-.39l1.48-1.22s3.17-6.85,13.72-14.41c0,0,6-3.7,9.33-5.66C193.25,229.66,196.94,228.17,206.73,232.82Z" transform="translate(-5.28 -5.47)"/><path class="cls-3" d="M180.93,251.13l-.13.2,0,0Z" transform="translate(-5.28 -5.47)"/><path class="cls-3" d="M206.72,232.4A133.93,133.93,0,0,0,193.59,240c-1.86,1.22-3.72,2.55-5.47,3.92q2.56-2.24,5.15-4.07A66.85,66.85,0,0,1,206.72,232.4Z" transform="translate(-5.28 -5.47)"/><path class="cls-10" d="M241.5,237.45l-13.32-9.88-1.44-14.86v-.06a40.44,40.44,0,0,1,13.25,22Z" transform="translate(-5.28 -5.47)"/><path class="cls-6" d="M235.88,309.78l.05,0-.19,0-.22,0-.38,0h0c-5.69.4-39.41.5-58.07-50.31,0,0-.25-3.67,3.71-8.19h.06l.67-.77.11-.12a71.45,71.45,0,0,1,6.54-6.5c1.36-1.06,2.78-2.1,4.22-3.08.41-.29.83-.57,1.25-.84a140.26,140.26,0,0,1,12.69-7.41l.44-.21h0a65,65,0,0,1,12.83-3.85c-15.91,3.17-22.14,12.84-22.14,12.84s0,0,0,0c-11.92,19.68-4.82,35.25,6.92,46.54l0,0c15.09,14.5,37.84,21.93,37.84,21.93Z" transform="translate(-5.28 -5.47)"/><path class="cls-3" d="M181.47,250.56l-.67.77h-.05l0,0,.16-.18,0,0Q181.2,250.83,181.47,250.56Z" transform="translate(-5.28 -5.47)"/><path class="cls-2" d="M230.71,317.51" transform="translate(-5.28 -5.47)"/><path class="cls-11" d="M235.93,309.76l-.05,0c-39.49,17.71-70.83,19.43-95.33,13.25a97.65,97.65,0,0,1-11.74-3.73,101.66,101.66,0,0,1-21.57-11.48l-.1-.08a118.82,118.82,0,0,1-27.3-26.85,121.65,121.65,0,0,1-15.61-27.53c.38.36.76.72,1.14,1,.19.19.38.36.57.52l.48.42c.18.17.35.33.53.47,1.08,1,2.16,1.85,3.23,2.67l.74.57c.32.25.63.49.94.71q2.51,1.85,5,3.31l.16.09c19.43,11.71,35.55,7.57,35.55,7.57-16.65,12.27-30.75.51-31.33,0,26.51,32.31,62.64,31.33,62.64,31.33-7.27,4.09-26.61,2.5-26.61,2.5,27.75,18.2,74.05,2.73,74.05,2.73-1,5.69-23.78,13-23.78,13s27.89,3,36.39-2.78c7.56-5.12,27-7.26,31.22-7.67h0l.38,0,.22,0Z" transform="translate(-5.28 -5.47)"/><path class="cls-10" d="M275.77,234.68h0a8.42,8.42,0,0,1-.71,2.95,17.08,17.08,0,0,1-1.63,3.74c-1.68,3.09-4.23,7.68-7.11,12.51a0,0,0,0,1,0,0c-5.64,9.44-12.54,19.79-16.71,21.73l-.82.38c-1.15-3.53-2.65-7.9-3-12.45-.58-7.05,2.73-21.17,5.9-22.32l.42-.26c.91-.86.87-3.2.48-5.75l.26-.71s12.57-10.57,18.52-10.46h.1C275.61,224.23,275.94,230.81,275.77,234.68Z" transform="translate(-5.28 -5.47)"/><path class="cls-12" d="M146.86,188.91c-2.84,13.36-26.18,22.35-26.18,22.35l6.6-7.74.11-.12.16-.18,1.83-4.4S149.7,175.56,146.86,188.91Z" transform="translate(-5.28 -5.47)"/><path class="cls-13" d="M111.94,228.07c-.32-.63-.62-1.26-.91-1.88s-.68-1.51-1-2.24c-.14-.37-.29-.73-.43-1.09s-.38-1-.54-1.46c-.59-1.62-1.06-3.14-1.44-4.52a1.36,1.36,0,0,1,0-.17,1.42,1.42,0,0,1,0-.36A79,79,0,0,0,111.94,228.07Z" transform="translate(-5.28 -5.47)"/><path class="cls-14" d="M115.8,230.31c-.7.29-1.44.56-2.2.82a.57.57,0,0,1-.08-.13Q114.66,230.69,115.8,230.31Z" transform="translate(-5.28 -5.47)"/><path class="cls-14" d="M120.81,228.43c-1.63.67-3.3,1.31-5,1.86a40.2,40.2,0,0,0,4.57-2.22C120.54,228.2,120.67,228.31,120.81,228.43Z" transform="translate(-5.28 -5.47)"/><path class="cls-2" d="M160.8,249.49a50.57,50.57,0,0,1-8.25-2.81C155.5,247.79,158.28,248.72,160.8,249.49Z" transform="translate(-5.28 -5.47)"/><line class="cls-3" x1="188.3" y1="234.55" x2="187.98" y2="234.4"/><path class="cls-11" d="M318.31,189.31c1.84,14.67-4.93,28.88-4.93,28.88s-.31-11.43-1.08-15.13-4.17-9-9.11-13.37-8.86-15.37-8.86-15.37c-6.68,9.76-2.65,21-2.65,21C277,177.68,284.09,154,284.09,154c-9.78,8-8.29,20.47-8.29,20.47-4.19-3.73-3.71-20.56-3.69-21.08h0C296.48,118.56,330,139.81,330,139.81c-50,2.92-16.72,57.13-16.72,57.13,2.76-8.44,1.63-18.74,1.63-18.74a72.4,72.4,0,0,1,3.36,11.1Z" transform="translate(-5.28 -5.47)"/><path class="cls-13" d="M270.94,155.1c-3.71,6.45-3.25,16.3-3.25,16.3-5.59-4.35-6.4-13.09-6.44-13.58a37.76,37.76,0,0,1,11.16-15.4c-9.08,12.16-5,18.65-5,18.65C268.54,158.93,269.73,156.94,270.94,155.1Z" transform="translate(-5.28 -5.47)"/><path class="cls-7" d="M328.26,214.88c-1.14,15.58-10.23,31.8-10.23,31.8A43.79,43.79,0,0,1,312.35,265a54,54,0,0,1-3.11,4.79l-.06.07A22.53,22.53,0,0,1,299,276c14.36-21.56,5.09-41.34,5.09-41.34.47,17.57-5.71,22.74-5.71,22.74,8-24.37-11.24-48.94-12.24-50.2,5.92,10.26,4.67,14.46,4.67,14.46-10.8-16.64-27.39-28.63-27.91-29h0c-6.29-14.86-5-26.52-1.66-34.85,0,.49.85,9.23,6.44,13.58,0,0-.46-9.85,3.25-16.3.38-.59.77-1.16,1.17-1.72,0,.52-.5,17.35,3.69,21.08,0,0-1.49-12.42,8.29-20.47,0,0-7.13,23.69,7.59,41.29,0,0-4-11.2,2.65-21,0,0,3.91,11,8.86,15.37s8.34,9.66,9.11,13.37,1.08,15.13,1.08,15.13,6.77-14.21,4.93-28.88c5.48,25.16-3,47.89-1.58,47.32C318.36,236,328.26,214.88,328.26,214.88Z" transform="translate(-5.28 -5.47)"/><path class="cls-6" d="M309.18,269.81c-3.92,5.45-8.47,10.08-12.25,15.47-7.95,11.31-33,14.16-33,14.16,8.24,1.14,7,1.14,7,1.14-8,9.58-25.94,9.32-25.94,9.32h-2.78a3.3,3.3,0,0,0,.7-2.17,1.19,1.19,0,0,0-.49-.65l-.06,0a0,0,0,0,1,0,0l0,0a21,21,0,0,0,2.65-4.23.09.09,0,0,0,0-.07,14.07,14.07,0,0,0,1.14-3.48,3,3,0,0,0,.08-.41s0-.06,0-.09a8.37,8.37,0,0,0-.59-5.57l0-.06c15.23-5.85,20.47-38.17,20.62-39.18a0,0,0,0,0,0,0l3,7c9.86-6.22,9.12-17.37,6.43-26.2h0c.17-3.87-.16-10.45-4.33-10.61h-.1c-.75-1.42-1.28-2.28-1.34-2.38l6.48,2.38c-3.87-17-17.61-28.16-18.89-29.17l8.83,5.62L263.94,195c-.36-.78-.71-1.56-1-2.32.52.37,17.11,12.36,27.91,29,0,0,1.25-4.2-4.67-14.46,1,1.26,20.22,25.83,12.24,50.2,0,0,6.18-5.17,5.71-22.74,0,0,9.27,19.78-5.09,41.34A22.53,22.53,0,0,0,309.18,269.81Z" transform="translate(-5.28 -5.47)"/><path class="cls-3" d="M242.91,307.73a1.7,1.7,0,0,0-.49-.65A1.19,1.19,0,0,1,242.91,307.73Z" transform="translate(-5.28 -5.47)"/><path class="cls-3" d="M246.22,299.22a14.07,14.07,0,0,1-1.14,3.48.09.09,0,0,1,0,.07A21,21,0,0,1,242.4,307a24.46,24.46,0,0,0,2.92-5h0A15.79,15.79,0,0,0,246.22,299.22Z" transform="translate(-5.28 -5.47)"/><path class="cls-15" d="M237.69,199.55c-4.71,1.75-4.95-3.43-4.95-3.43a22.32,22.32,0,0,1,1.53-3c.59-.89,1.22-1.51,1.66-1,.57.66,1,2.85,1.36,4.69h0C237.55,198.31,237.69,199.55,237.69,199.55Z" transform="translate(-5.28 -5.47)"/><path class="cls-15" d="M232.8,191.77c0,.51-.06.83-.06.83-3.35,3.2-4.66-.65-4.66-.65s.15-1,.41-2.25c.55-2.58,1.6-6.24,2.89-4.52C232.81,187.09,232.86,190.27,232.8,191.77Z" transform="translate(-5.28 -5.47)"/><path class="cls-3" d="M89.34,205c-.42.12-.84.24-1.25.34l-.37.09a40.68,40.68,0,0,1-7.34,1.1H80c-1.36.07-2.67.07-3.9,0l4.14-.49.39-.05,5-.59h0l2.12-.25.36,0Z" transform="translate(-5.28 -5.47)"/><path class="cls-3" d="M104.81,197.6a.2.2,0,0,1-.08,0l-1.49.84h0c-.6.33-1.32.73-2.18,1.18l3.66-2.49Z" transform="translate(-5.28 -5.47)"/><path class="cls-3" d="M118.16,164.86l-.64,0C118,164.75,118.14,164.76,118.16,164.86Z" transform="translate(-5.28 -5.47)"/><path class="cls-6" d="M95.64,156.14s-12,11.41-18.12,8.06-17.88,8.62-17.88,8.62c-4.24,1.2-6.07,16-6.07,16s-2.64,1.44-7.35-2.71,7.19-14.3,7.19-14.3l.48,1.52,1.52.07,5.24-10.54-4.26-.9,1.57-2.6S80.15,146.48,95.64,156.14Z" transform="translate(-5.28 -5.47)"/><path class="cls-6" d="M97.64,171.63c-8,10.37-3.36,19.64-3.36,19.64-8.54,1.27-13.65-4.4-15.64-11.1s13.17-11.58,13.17-11.58,10.46-6.31,9.58-8.94l3,.6,5.49,2.91Z" transform="translate(-5.28 -5.47)"/><path class="cls-16" d="M123.74,168.39l-.93,1.16c-1.09,2.23-6.17,1.84-6.17,1.84-2.87-3.15,1.58-6,1.52-6.53l1,0S125.17,165.42,123.74,168.39Z" transform="translate(-5.28 -5.47)"/><path class="cls-17" d="M265.17,162c-9.43-23.85-19.15-39.07-22.09-43.44a2.16,2.16,0,0,1,.18-.3C256.42,123.75,269.17,150.57,265.17,162Z" transform="translate(-5.28 -5.47)"/><path class="cls-2" d="M102.37,270.7l-.26,0" transform="translate(-5.28 -5.47)"/><path class="cls-3" d="M295.27,304.73" transform="translate(-5.28 -5.47)"/><path class="cls-18" d="M104.75,197.15c.43-.17-3.72,2.52-3.72,2.52l-.09.05-11.58,5.22h0l-1.15.14-.36,0-2.12.25h0l-5,.59-.39.05-4.14.49h0s-10.86-3-18.5-5.79l-9.43-5.16a31.85,31.85,0,0,1-4.82-1.39h0a23.71,23.71,0,0,1-4.1-1.94l-.09-.05-.07,0c-7-4.29-11.17-13.23,17.29-30.22l4.26.9-5.24,10.54-1.52-.07-.48-1.52s-11.9,10.14-7.19,14.3,7.35,2.71,7.35,2.71,1.83-14.77,6.07-16c0,0,11.81-12,17.88-8.62s18.12-8.06,18.12-8.06,4.87.88,5.75,3.51-9.58,8.94-9.58,8.94l0,0-.28.09-.43.15-.18.07-1,.39-.59.24h0l-.49.21-.55.24c-.54.23-1.12.5-1.72.8l-.93.48,0,0-.46.25-.7.41-.7.42h0c-.19.12-.38.24-.56.37s-.48.34-.72.52h0l-.2.15c-.17.13-.34.26-.5.4l-.53.45c-.17.15-.33.3-.48.46s-.32.32-.45.48-.21.23-.3.35l-.2.26-.07.11c-.13.19-.26.37-.37.57l-.07.11s0,0,0,0a2.2,2.2,0,0,0-.15.31c-.06.12-.11.25-.16.37a3.3,3.3,0,0,0-.12.38,2.74,2.74,0,0,0-.09.39,2.63,2.63,0,0,0-.06.39,3.87,3.87,0,0,0,0,.9h0a3.66,3.66,0,0,0,.14.72c.17.58.37,1.16.59,1.72l.33.8c.13.29.27.58.41.86s.27.53.42.79.3.52.46.77.24.38.38.57.42.59.64.87.32.39.5.58.33.38.51.56.53.52.82.77.44.36.67.53.45.34.69.49h0c.23.15.46.29.69.41s.57.31.86.44.55.24.83.34l.38.13a6.13,6.13,0,0,0,.61.18,2.14,2.14,0,0,0,.34.09,5.61,5.61,0,0,0,.59.13l.28,0,.48.08.22,0c.11,0,.22,0,.34,0l.34,0h.15a15.7,15.7,0,0,0,3.09-.16s-.1-.2-.24-.57l-.18-.49c0-.11-.08-.24-.12-.37s-.14-.47-.21-.74c0-.08,0-.16-.07-.25l-.09-.4c0-.18-.08-.36-.11-.56s-.07-.39-.1-.59,0-.2,0-.29l-.06-.48c0-.16,0-.33,0-.5V186c0-.45-.06-.94-.06-1.44a20.85,20.85,0,0,1,4.69-12.89l12.21-8.47s5,2.24,7.67,1.68l.64,0c.06.52-4.39,3.38-1.52,6.53,0,0,5.08.39,6.17-1.84C122.81,169.55,117.91,190.18,104.75,197.15Z" transform="translate(-5.28 -5.47)"/><path class="cls-7" d="M219.54,302.31" transform="translate(-5.28 -5.47)"/><line class="cls-3" x1="230.6" y1="304.31" x2="230.46" y2="304.31"/><path class="cls-19" d="M87.75,176.28a3.3,3.3,0,0,0-6.34,1.29,3.25,3.25,0,0,0,.36,1.49,41.65,41.65,0,0,1-7,.52s4.11-10.74,13.2-4.13A1.53,1.53,0,0,1,87.75,176.28Z" transform="translate(-5.28 -5.47)"/><path class="cls-20" d="M87.75,176.28h0c-.49.84-1.91,2.09-6,2.77a3.25,3.25,0,0,1-.36-1.49,3.3,3.3,0,0,1,6.34-1.29Z" transform="translate(-5.28 -5.47)"/><circle class="cls-19" cx="78.73" cy="169.43" r="0.99"/><path class="cls-21" d="M261.25,157.82v0" transform="translate(-5.28 -5.47)"/><path class="cls-21" d="M272.11,153.38a13,13,0,0,0-1.17,1.72" transform="translate(-5.28 -5.47)"/><path class="cls-21" d="M286.13,207.18a0,0,0,0,1,0,0" transform="translate(-5.28 -5.47)"/><path class="cls-22" d="M258.14,130.23" transform="translate(-5.28 -5.47)"/><path class="cls-15" d="M274.33,233.29c-3.16-1.53-.66-4.15-.66-4.15a15.17,15.17,0,0,1,2.24-.67c.73-.13,1.35-.12,1.31.35a9.57,9.57,0,0,1-1.71,3h0C274.89,232.62,274.33,233.29,274.33,233.29Z" transform="translate(-5.28 -5.47)"/><path class="cls-15" d="M273,227l-.31.4c-2.76.47-2.12-1.9-2.12-1.9s.41-.45,1-1c1.15-1.11,2.91-2.59,3-1.3A6.8,6.8,0,0,1,273,227Z" transform="translate(-5.28 -5.47)"/><path class="cls-23" d="M148.56,233.37" transform="translate(-5.28 -5.47)"/><path class="cls-6" d="M55.34,234.21l0-.08c-.58-1.63-10.49-29.36-13.59-38a1.22,1.22,0,0,1-.07-.41.49.49,0,0,1,0-.12C57.23,216.75,55.34,234.21,55.34,234.21Z" transform="translate(-5.28 -5.47)"/><path class="cls-23" d="M76.81,263.08a50.2,50.2,0,0,1-5-3.31Q74.37,261.62,76.81,263.08Z" transform="translate(-5.28 -5.47)"/><path class="cls-24" d="M88.09,205.29c-.84,1.6-1.34,2.68-1.5,3a28.63,28.63,0,0,1,1.13-2.94Z" transform="translate(-5.28 -5.47)"/><path class="cls-7" d="M105.05,199.82c0-.19-.07-.37-.1-.54a.14.14,0,0,1,0,.06C105,199.49,105,199.65,105.05,199.82Z" transform="translate(-5.28 -5.47)"/><path class="cls-23" d="M109.49,232.14a14.79,14.79,0,0,1-6.82-.29h.09a31.47,31.47,0,0,0,4.83.27,8.07,8.07,0,0,0-1.24.07A9.17,9.17,0,0,0,109.49,232.14Z" transform="translate(-5.28 -5.47)"/><path class="cls-23" d="M112.9,230.12c-.3-.59-.59-1.19-.85-1.82.23.45.47.89.71,1.34A1.25,1.25,0,0,1,112.9,230.12Z" transform="translate(-5.28 -5.47)"/><path class="cls-23" d="M123.74,227.16l-.11.05.05-.08Z" transform="translate(-5.28 -5.47)"/><path class="cls-13" d="M121.53,227.33a1,1,0,0,1-.31.27l0,0-.77.45a40.2,40.2,0,0,1-4.57,2.22l0,0q-1.14.38-2.28.69c-.26-.45-.52-.91-.76-1.36s-.48-.89-.71-1.34a1.63,1.63,0,0,1-.11-.23,79,79,0,0,1-4.33-11.72c-.47-2.06-.25-3,.83-2.6,1.67.65,5.39,4.6,11.79,12.86Z" transform="translate(-5.28 -5.47)"/><path class="cls-14" d="M115.8,230.31c-.7.29-1.44.56-2.2.82l-.16.05-.08-.14c-.16-.3-.32-.61-.46-.92-.3-.59-.59-1.19-.85-1.82.23.45.47.89.71,1.34s.5.91.76,1.36Q114.66,230.69,115.8,230.31Z" transform="translate(-5.28 -5.47)"/><path class="cls-14" d="M122.35,227.77h0l-1.54.65c-1.63.67-3.3,1.31-5,1.86a40.2,40.2,0,0,0,4.57-2.22l.77-.45,0,0a1,1,0,0,0,.31-.27l.08,0Z" transform="translate(-5.28 -5.47)"/><path class="cls-23" d="M131.94,249c-2,3.78-3.41,6.28-3.55,6.52l3.09-6.74Z" transform="translate(-5.28 -5.47)"/><path class="cls-7" d="M149.39,206.35a44,44,0,0,1-2.25,8.39v0c-1.78,6.39-5.44,14.73-9.06,22.21-2.2,4.56-4.39,8.79-6.13,12.06-.15,0-2.94,5.35-3.47,6.36l0,.09,0,.05a0,0,0,0,0,0,0v0a133.14,133.14,0,0,1-15.85,13.19,40.9,40.9,0,0,1-7.46,1.71l-.44,0-.52.05-.66.06-.55,0-.33,0h-.28a34.77,34.77,0,0,1-9-1.16A70,70,0,0,1,77,263.17l-.16-.09q-2.44-1.47-5-3.31c-.31-.22-.62-.46-.94-.71l-.74-.57-.79-.64c-.36-.28-.71-.58-1.06-.87s-.54-.44-.8-.67-.39-.34-.58-.49l-.53-.47-.48-.42-.57-.52c-.38-.33-.76-.69-1.14-1a121.65,121.65,0,0,0,15.61,27.53c-.81-.95-1.6-1.91-2.39-2.88a140.92,140.92,0,0,1-10.57-14.75c-7.31-11.89-9.93-20.84-11.52-29,0,0,0,0,0-.08a28.49,28.49,0,0,0-.06-5c0-.49-.09-1-.15-1.57s-.14-1.14-.23-1.76-.19-1.15-.3-1.76c0-.12,0-.25-.07-.38-.09-.49-.2-1-.32-1.52l0-.14c0-.16-.07-.33-.11-.5-.13-.55-.27-1.12-.42-1.7s-.27-1-.42-1.49c-.22-.77-.46-1.56-.74-2.37-.18-.52-.36-1.06-.56-1.6-.08-.24-.18-.48-.27-.72s-.17-.46-.26-.7l0,0s0-.09-.05-.13l0-.07c-.27-.7-.57-1.41-.88-2.13-.21-.48-.42-1-.65-1.44s-.44-1-.68-1.43-.47-1-.73-1.45-.49-1-.75-1.43c-1.11-2-2.38-4.15-3.83-6.3-.31-.47-.64-.95-1-1.43s-.71-1-1.08-1.51h0l-.06,0-1.83-2.61,0,0-.63-.9.09.05.12.06,4,1.88h0l.07,0,.13.06c1.68.81,12.6,5.93,14,6.46,7.64,2.81,18.5,5.79,18.5,5.79h.07c.5,0,2.11-.16,4-.39l.38,0c1.64-.19,3.47-.42,5-.62h0l2.14-.28.36-.05,1.1-.16.07,0,.58-.26.38-.17.47-.21.37-.17.82-.37,2.4-1.08,1.32-.6,1-.45,3-1.35.45-.2.18-.08.3-.14.21-.09.11-.05h0l.09-.05h0a0,0,0,0,0,0,0l.05,0,.11-.05.1-.05.53-.28.88-.48.47-.26.07,0,.08,0,.21-.12.16-.09.52-.29.16-.09.09,0,.23-.13h0l.06,0h0c.89.59,4.14,10.93,4.39,11.67a.1.1,0,0,0,0,0c.06.11.11.23.17.35s.11.24.18.37c.29.61.61,1.26,1,1.91h0c.32.61.66,1.21,1,1.79l.14.23a1.18,1.18,0,0,0,.11.19c.06.09.12.2.19.32s.15.24.22.37.07.1.1.16l.12.19,0,.06,0,0a2,2,0,0,0,.16.26,0,0,0,0,0,0,0q.24.36.45.72c.93,1.6,1.5,3.25,2.89,4.77.11.11.22.23.34.34l.67.64c.62.59,1.28,1.16,2,1.71.39.32.78.63,1.19.93l0,0c.49.36,1,.71,1.51,1.06l.36.25,0,0c.26.14,1.11.51,1.23.61l-.15.1,0,0L123,227a.05.05,0,0,1,0,0l-.94.58-.43.25-.26-.24-1-1c-6.4-8.26-10.12-12.21-11.79-12.86-1.08-.42-1.3.54-.83,2.6a1.42,1.42,0,0,0,0,.36,1.36,1.36,0,0,0,0,.17c.38,1.38.85,2.9,1.44,4.52.16.48.35,1,.54,1.46s.29.72.43,1.09c.3.73.63,1.48,1,2.24s.59,1.25.91,1.88a1.63,1.63,0,0,0,.11.23c.26.63.55,1.23.85,1.82.14.31.3.62.46.92-.45.13-.9.25-1.35.35h0l-.15,0-1,.22-1.07.2h0q-.48.09-1,.15c-.39.05-.78.1-1.16.13h-.07a31.47,31.47,0,0,1-4.83-.27h-.09a14.79,14.79,0,0,0,6.82.29l.35,0,.42-.07h0a27.49,27.49,0,0,0,3.15-.83l.16-.05c.76-.26,1.5-.53,2.2-.82l0,0c1.67-.55,3.34-1.19,5-1.86l1.54-.65h0l1.28-.56h0l0-.07.19-.28c1.4-2.2,8.64-13.69,9.39-14.87l.06-.1c.67-.69,1.32-1.34,1.93-1.94l.11-.11c5.12-5.05,8.49-7.49,10.66-8.26-.05.05-.09.11-.14.17-.48.59-.83,1.09-.83,1.09s-.35,2.41,2.31,1.61c0,0,.11-.16.26-.42a9.24,9.24,0,0,0,1-2.37C149.56,202.41,149.66,204.27,149.39,206.35Z" transform="translate(-5.28 -5.47)"/><path class="cls-25" d="M148.11,209.51c-3-.34-1.71-3.18-1.71-3.18a13.54,13.54,0,0,1,1.63-1.18c.56-.31,1.07-.47,1.17-.08a8.17,8.17,0,0,1-.56,2.88h0C148.38,208.81,148.11,209.51,148.11,209.51Z" transform="translate(-5.28 -5.47)"/><path class="cls-26" d="M148.2,199.67l-.57.27.13-.09.13-.07.14-.07A.59.59,0,0,1,148.2,199.67Z" transform="translate(-5.28 -5.47)"/><polygon class="cls-27" points="161.16 185.11 160.58 185.49 151.56 189.94 142.92 194.2 142.35 194.47 142.33 194.49 133.23 198.97 128.08 201.51 142.48 194.38 142.61 194.31 142.75 194.24 151.6 189.85 161.16 185.11"/><path class="cls-26" d="M148.58,201.65a9.24,9.24,0,0,1-1,2.37c-.15.26-.26.42-.26.42-2.66.8-2.31-1.61-2.31-1.61s.35-.5.83-1.09c.05-.06.09-.12.14-.17a10.12,10.12,0,0,1,1.59-1.61l0,0,.57-.27c.23,0,.4.08.46.44A4,4,0,0,1,148.58,201.65Z" transform="translate(-5.28 -5.47)"/><path class="cls-28" d="M267.25,165l-24.86,13.47s-.63-2.24-2-6.16c-.16-.51-.35-1-.55-1.57a.64.64,0,0,0-.06-.18c-4-14.38-13.73-31.81-15.53-35-.1-.19-.18-.32-.23-.41l-.05-.09c-.56-1-1.14-2.12-1.75-3.2s-1.12-2-1.72-3.05l22.31-12.35.9,1.3c2.94,4.38,12.66,19.6,22.09,43.45C266.27,162.45,266.76,163.71,267.25,165Z" transform="translate(-5.28 -5.47)"/><path class="cls-28" d="M239.78,170.54a264,264,0,0,0-15.53-35C226.05,138.73,235.77,156.16,239.78,170.54Z" transform="translate(-5.28 -5.47)"/><path class="cls-28" d="M239.84,170.72l-24.93,11.05s-.66-2.31-1.92-5.9c-.27-.74-.52-1.46-.77-2.18-1.32-3.57-3.07-8-5.2-12.49-1.09-2.3-2.05-4.13-2.79-5.48q-.14-.27-.3-.54c-.49-.87-.84-1.48-1-1.79a.86.86,0,0,0-.07-.1s0,0,0,0,0,0,0,0,0,0,0,0l0,0c-.59-1-1.21-2-1.85-3s-1.39-2.06-2.14-3l25.2-12,.05.09c0,.09.13.22.23.41s.41.72.7,1.25l.78,1.42c3.38,6.18,10.7,20.3,14.05,32.3A.64.64,0,0,1,239.84,170.72Z" transform="translate(-5.28 -5.47)"/><path class="cls-28" d="M213.38,177l-41,20.95-.1-.11c-.19-.21-.66-.73-1.31-1.51-.41-.5-.92-1.13-1.48-1.85a1.77,1.77,0,0,1-.12-.17c-.14-.17-.28-.35-.41-.53l-.24-.32-.49-.67-.57-.82,0,0A45.3,45.3,0,0,1,162,181.21a21.11,21.11,0,0,1-.64-2.15c0-.11-.06-.21-.09-.32a19.81,19.81,0,0,1-.6-4.09l.5-.25.89-.46,2.49-1.27,1.23-.63,5.42-2.76,1.77-.9,29.81-15.23h0s0,0,0,.05,0,0,0,0,0,0,0,0v0a.36.36,0,0,1,.07.1l.24.42a.21.21,0,0,0,0,.06,1.62,1.62,0,0,0,.1.18l0,0c.12.21.26.45.41.73.08.12.15.25.22.38a.3.3,0,0,1,0,.08c.09.15.17.3.25.45s.33.6.5.93l.15.27a.11.11,0,0,0,0,0l.25.48q.51,1,1.08,2.13c.26.52.52,1.07.79,1.64l.6,1.28c.06.13.13.26.18.4,1,2.27,2.19,4.91,3.33,7.87.36.95.73,1.93,1.09,2.94l0,.05.75,2.13c.07.22.14.44.23.66a2.3,2.3,0,0,0,.14.42,0,0,0,0,1,0,0A.16.16,0,0,1,213.38,177Z" transform="translate(-5.28 -5.47)"/><path class="cls-29" d="M171,196.35l-18.26,8.46-3.31,1.54c.27-2.08.17-3.94-.81-4.7a4,4,0,0,0,.08-1.54c-.06-.36-.23-.48-.46-.44l8.64-4.26,9-4.45.58-.38a38.59,38.59,0,0,0,3,3.92C170,195.22,170.55,195.85,171,196.35Z" transform="translate(-5.28 -5.47)"/><path class="cls-28" d="M166.44,190.58l-.58.38-9,4.45-8.64,4.26-.57.27,0,0-9.1,4.48L133.36,207l0,0c-.29-.51-.59-1.07-.88-1.68a27.82,27.82,0,0,1-1.71-4.79.13.13,0,0,1,0-.08v0c-.19-.77-.37-1.58-.51-2.44a1.26,1.26,0,0,1,0-.27c-.08-.43-.15-.88-.21-1.34l2.19-1.24,1.54-.88h0l7.79-4.43.16-.09h0l5.46-3.11,1.55-.88.79-.44,4.65-2.65,4-2.26,3-1.47.14-.07a27.77,27.77,0,0,0,1.36,4.5h0A36.69,36.69,0,0,0,166.44,190.58Z" transform="translate(-5.28 -5.47)"/><path class="cls-28" d="M161.24,178.75h0l-3.14,1.54,3.11-1.76a1.4,1.4,0,0,1,0,.21Z" transform="translate(-5.28 -5.47)"/><path class="cls-28" d="M134.43,208.65l-.07,0-13.29,6.56a1.76,1.76,0,0,1-.62.18.69.69,0,0,1-.24,0,1.92,1.92,0,0,1-1.18-.23l-1.17.67s-.87-.18-2.12-3q-.17-.36-.33-.78c-.26-.66-.54-1.43-.83-2.34l1.48-.87a2.11,2.11,0,0,1,1-1.29l7.44-3.68,3.28-1.92.29-.17h0l2.46-1.44.22.45c.09.39.24,1,.47,1.76l0,.09a19.19,19.19,0,0,0,1.06,2.59c.16.32.33.64.52,1s.29.45.44.67l0,0h0s.09.14.16.25c.19.32.51.83.75,1.19Z" transform="translate(-5.28 -5.47)"/><path class="cls-28" d="M130.81,200.86l-.22-.44.12-.08a.18.18,0,0,0,0,0,.12.12,0,0,0,0,.07A2.23,2.23,0,0,0,130.81,200.86Z" transform="translate(-5.28 -5.47)"/><path class="cls-28" d="M156.88,167.72l-13.35,6.6,2.5,5.07h0l2.5,4.24.64,1.08.3.49-.79.45-7,4h0v0l-.16.09-4.71-10.41-2.17.83-5.67,2.18-.36-1.94a1.93,1.93,0,0,1-.56-.7l-.92-1.85a2,2,0,0,1,.58-2.43l0-.19,26.81-14.07.43,1a3.61,3.61,0,0,1,2,1.07l.92,1.86A2,2,0,0,1,156.88,167.72Z" transform="translate(-5.28 -5.47)"/><path class="cls-29" d="M147.61,200a10.12,10.12,0,0,0-1.59,1.61c-2.17.77-5.54,3.21-10.66,8.26-.09-.09-.16-.18-.24-.27v0l-.4-.5-.28-.39-.16-.22c-.24-.36-.56-.87-.75-1.19-.07-.11-.12-.2-.16-.25h0l5.15-2.54Z" transform="translate(-5.28 -5.47)"/><polygon class="cls-30" points="215.22 123.35 219.67 131.35 242.95 119.51 237.53 111 215.22 123.35"/><polygon class="cls-30" points="193.49 141.63 196.33 145.78 221.05 133.88 218.73 129.69 193.49 141.63"/><path class="cls-30" d="M160.65,174.66a12.27,12.27,0,0,0,.59,4.09L204.9,157s-1.83-3.33-2-3.57S160.65,174.66,160.65,174.66Z" transform="translate(-5.28 -5.47)"/><polygon class="cls-30" points="124.67 190.82 125.42 194.87 157.31 177.79 155.96 173.28 124.67 190.82"/><path class="cls-29" d="M239,168.05l23.89-13.81s2.47,5.47,4.32,10.74l-24.86,13.47A98,98,0,0,0,239,168.05Z" transform="translate(-5.28 -5.47)"/><path class="cls-29" d="M212.22,173.69a82.12,82.12,0,0,1,2.69,8.08l24.93-11.05s.14-1.35-2.93-8.73Z" transform="translate(-5.28 -5.47)"/><path class="cls-29" d="M167.62,192a60.34,60.34,0,0,0,4.75,6l41-20.94a52.72,52.72,0,0,0-2.76-7.52Z" transform="translate(-5.28 -5.47)"/><path class="cls-30" d="M128.14,177.33s28-14,28-14.41-1.12-.77-1.12-.77l-.43-1-26.81,14.07a1.83,1.83,0,0,0-.55,2.62Z" transform="translate(-5.28 -5.47)"/><line class="cls-31" x1="128.08" y1="201.52" x2="128.03" y2="201.54"/><path class="cls-32" d="M96.74,188.94c-1.06,1.25-2,2.5-3,3.71A98.53,98.53,0,0,0,87,203c-.84,1.48-1.32,2.45-1.43,2.66.32-.84.67-1.69,1.07-2.52a51.51,51.51,0,0,1,6.68-10.3h0C94.43,191.51,95.58,190.19,96.74,188.94Z" transform="translate(-5.28 -5.47)"/><path class="cls-32" d="M110.89,176.25A106.82,106.82,0,0,0,99,186.55c-.75.75-1.51,1.54-2.27,2.35.64-.77,1.32-1.52,2-2.29A59.31,59.31,0,0,1,110.89,176.25Z" transform="translate(-5.28 -5.47)"/><path class="cls-32" d="M79.79,199.94s12.87-17.6,30.17-24.56C110,175.38,88.05,185.9,79.79,199.94Z" transform="translate(-5.28 -5.47)"/><path class="cls-32" d="M89.9,192.79c-.94,1.13-1.83,2.25-2.67,3.34a98.47,98.47,0,0,0-6.3,9.4l-.26.45-.29.5c-.88,1.53-1.42,2.59-1.61,3,.38-1,.8-2,1.27-2.94l.24-.46c0-.09.08-.17.13-.26a53.79,53.79,0,0,1,6.28-9.29C87.73,195.2,88.81,194,89.9,192.79Z" transform="translate(-5.28 -5.47)"/><path class="cls-32" d="M104.07,180.1a103,103,0,0,0-8.72,7.27h0c-1.72,1.6-3.57,3.4-5.4,5.38,1.5-1.77,3.12-3.55,4.87-5.26h0A54.58,54.58,0,0,1,104.07,180.1Z" transform="translate(-5.28 -5.47)"/><path class="cls-32" d="M97.24,191a94.41,94.41,0,0,0-9,14.07l-.1.2c-.84,1.6-1.34,2.68-1.5,3a28.63,28.63,0,0,1,1.13-2.94,1.89,1.89,0,0,1,.11-.25A60.42,60.42,0,0,1,97.24,191Z" transform="translate(-5.28 -5.47)"/><path class="cls-32" d="M110.67,178A109.67,109.67,0,0,0,97.29,191,62.17,62.17,0,0,1,110.67,178Z" transform="translate(-5.28 -5.47)"/><circle class="cls-3" cx="177.49" cy="177.49" r="173.99"/><polyline class="cls-33" points="291.2 109.57 249.22 78.61 195.06 55.47 135.26 72.92 135.2 72.94 135.18 72.89 135.14 72.8 118.67 37.65 58.95 78.61 89.95 106.72 134.25 73.61 135.05 72.8"/><path class="cls-34" d="M315.66,116.49a1.72,1.72,0,0,1-2.21,1.13,1.79,1.79,0,0,1-1.09-1.06l-4.42-.18a12.13,12.13,0,0,1-2,5.88l2.64,2a1.73,1.73,0,0,1,2.28.47,1.83,1.83,0,0,1-.17,2.38s0,0,0,0l-.1.1a1.73,1.73,0,0,1-2.46-.35,1.88,1.88,0,0,1-.32-1.51l-2.68-2a11.25,11.25,0,0,1-3.9,3l-.12.06,1.34,3.39a1.79,1.79,0,1,1-1.79,1.95,1.79,1.79,0,0,1,.49-1.44l-1.34-3.39a10.75,10.75,0,0,1-1.3.33,11.43,11.43,0,0,1-5.18-.17l-.77,2a1.89,1.89,0,0,1,.15,2.39,1.71,1.71,0,0,1-2.46.29,1.82,1.82,0,0,1-.32-2.52,1.67,1.67,0,0,1,1.33-.68l.74-1.94a11.84,11.84,0,0,1-4.86-3.54l-1.78,2a1.79,1.79,0,0,1-.69,2.25,1.71,1.71,0,0,1-2.4-.59,1.82,1.82,0,0,1,.57-2.48,1.63,1.63,0,0,1,1.48-.15l2-2.21a12.45,12.45,0,0,1-1.78-4.41l0-.13-3.71.71a1.72,1.72,0,0,1-1.87,1.37,1.79,1.79,0,0,1-1.58-2,1.72,1.72,0,0,1,3.18-.81l3.8-.73a11.83,11.83,0,0,1,.26-3.53l-2.29-.55a1.71,1.71,0,0,1-2.25.5,1.84,1.84,0,0,1-.69-2.46,1.72,1.72,0,0,1,2.38-.69,1.85,1.85,0,0,1,.88,1.25l2.35.57a12.22,12.22,0,0,1,2.52-4.24l-1.13-.84a1.74,1.74,0,0,1-2.28-.46,1.84,1.84,0,0,1,.3-2.52,1.72,1.72,0,0,1,2.47.33,1.86,1.86,0,0,1,.33,1.49h0l1.33,1a11.42,11.42,0,0,1,4.94-2.5l-.77-3.07a1.8,1.8,0,0,1-1.48-1.85,1.76,1.76,0,0,1,1.79-1.73,1.82,1.82,0,0,1,1.71,1.87,1.7,1.7,0,0,1-.68,1.34h0l.8,3.2h0a10.88,10.88,0,0,1,3.42.15h0a11.38,11.38,0,0,1,2.93,1l.82-1.79a1.84,1.84,0,0,1,0-2.38,1.75,1.75,0,0,1,2.48-.15,1.85,1.85,0,0,1,.18,2.55,1.72,1.72,0,0,1-1.38.61l-.83,1.86a12.18,12.18,0,0,1,4,4.22l1.36-.71a1.75,1.75,0,0,1,1.39-1.89,1.81,1.81,0,0,1,.69,3.56,1.72,1.72,0,0,1-1.45-.4l-1.35.71a12.94,12.94,0,0,1,.78,2.54,12.12,12.12,0,0,1,.22,2l4.42.18a1.7,1.7,0,0,1,2.12-.91A1.83,1.83,0,0,1,315.66,116.49Z" transform="translate(-5.28 -5.47)"/><path class="cls-34" d="M266.33,85a1.06,1.06,0,0,1-1.37.7,1.08,1.08,0,0,1-.67-.65l-2.72-.11a7.42,7.42,0,0,1-1.26,3.62l1.63,1.24a1.06,1.06,0,0,1,1.4.29,1.12,1.12,0,0,1-.1,1.47s0,0,0,0l-.07.06a1.06,1.06,0,0,1-1.51-.22,1.17,1.17,0,0,1-.2-.93l-1.65-1.25a7.1,7.1,0,0,1-2.41,1.85l-.07,0,.83,2.09a1.11,1.11,0,0,1,.08,2.21,1.12,1.12,0,0,1-.88-1.9l-.83-2.08c-.26.07-.53.15-.8.2a7,7,0,0,1-3.2-.11L252,92.76a1.15,1.15,0,0,1,.1,1.47,1.06,1.06,0,0,1-1.52.18,1.12,1.12,0,0,1-.2-1.55,1,1,0,0,1,.82-.42l.46-1.2a7.34,7.34,0,0,1-3-2.18l-1.09,1.24a1.12,1.12,0,0,1-.43,1.39,1.06,1.06,0,0,1-1.48-.36A1.13,1.13,0,0,1,246,89.8a1,1,0,0,1,.91-.1l1.21-1.36a7.59,7.59,0,0,1-1.09-2.72l0-.08-2.28.44a1.09,1.09,0,0,1-1.16.85,1.11,1.11,0,0,1-1-1.22,1.06,1.06,0,0,1,2-.5l2.34-.45a7.54,7.54,0,0,1,.16-2.18l-1.41-.34a1.06,1.06,0,0,1-1.39.31,1.15,1.15,0,0,1-.43-1.52,1.07,1.07,0,0,1,1.47-.42,1.14,1.14,0,0,1,.55.77l1.45.35A7.33,7.33,0,0,1,248.88,79l-.7-.52a1.07,1.07,0,0,1-1.4-.29,1.13,1.13,0,0,1,.18-1.55,1.07,1.07,0,0,1,1.52.2,1.14,1.14,0,0,1,.21.92h0l.83.62a7,7,0,0,1,3-1.55L252.09,75a1.13,1.13,0,0,1-.92-1.14,1.09,1.09,0,0,1,1.11-1.07,1.11,1.11,0,0,1,1.05,1.15,1.05,1.05,0,0,1-.41.83h0l.5,2h0a6.7,6.7,0,0,1,2.1.09h0a6.8,6.8,0,0,1,1.81.62l.5-1.11a1.15,1.15,0,0,1,0-1.47,1.08,1.08,0,0,1,1.53-.09,1.14,1.14,0,0,1,.11,1.57,1,1,0,0,1-.85.38l-.51,1.14a7.55,7.55,0,0,1,2.44,2.61l.85-.44a1.06,1.06,0,0,1,.85-1.16,1.12,1.12,0,1,1-.47,2l-.83.43a8,8,0,0,1,.48,1.57,7.37,7.37,0,0,1,.14,1.21l2.72.11a1.06,1.06,0,0,1,1.31-.56A1.13,1.13,0,0,1,266.33,85Z" transform="translate(-5.28 -5.47)"/><path class="cls-34" d="M212.59,61.87a1.1,1.1,0,0,1-1.41.72,1.15,1.15,0,0,1-.7-.68l-2.82-.11a7.7,7.7,0,0,1-1.3,3.75l1.69,1.28a1.11,1.11,0,0,1,1.45.3,1.16,1.16,0,0,1-.11,1.52s0,0,0,0l-.07.06a1.11,1.11,0,0,1-1.57-.22,1.25,1.25,0,0,1-.2-1l-1.71-1.29a7.35,7.35,0,0,1-2.5,1.91l-.07,0,.86,2.17A1.14,1.14,0,1,1,203,71.63a1.15,1.15,0,0,1,.32-.93l-.86-2.16a7.75,7.75,0,0,1-.83.21,7.36,7.36,0,0,1-3.31-.11l-.5,1.3a1.19,1.19,0,0,1,.1,1.52,1.1,1.1,0,0,1-1.57.19,1.16,1.16,0,0,1-.21-1.61,1,1,0,0,1,.85-.44l.48-1.24a7.59,7.59,0,0,1-3.11-2.26l-1.14,1.29a1.14,1.14,0,0,1-.44,1.44,1.12,1.12,0,0,1-1.54-.38,1.18,1.18,0,0,1,.37-1.59,1.07,1.07,0,0,1,.95-.09l1.25-1.42a8,8,0,0,1-1.14-2.81v-.08l-2.37.45a1.11,1.11,0,0,1-1.19.88,1.14,1.14,0,0,1-1-1.26,1.1,1.1,0,0,1,1.2-1,1.09,1.09,0,0,1,.83.5l2.42-.46a8.1,8.1,0,0,1,.17-2.26l-1.46-.34a1.1,1.1,0,0,1-1.44.31,1.18,1.18,0,0,1-.44-1.57,1.1,1.1,0,0,1,1.52-.44,1.16,1.16,0,0,1,.56.8l1.5.36a7.86,7.86,0,0,1,1.61-2.7l-.72-.54a1.11,1.11,0,0,1-1.45-.3,1.16,1.16,0,0,1,.19-1.61,1.11,1.11,0,0,1,1.58.21,1.21,1.21,0,0,1,.21.95h0l.85.64a7.35,7.35,0,0,1,3.16-1.6l-.49-2a1.15,1.15,0,0,1-1-1.18,1.11,1.11,0,0,1,1.14-1.1,1.15,1.15,0,0,1,.67,2.05h0l.51,2h0a7.29,7.29,0,0,1,2.19.1h0a7.26,7.26,0,0,1,1.87.64l.52-1.15a1.17,1.17,0,0,1,0-1.52,1.1,1.1,0,0,1,1.58-.09,1.16,1.16,0,0,1,.11,1.62,1.09,1.09,0,0,1-.88.4l-.53,1.18a7.65,7.65,0,0,1,2.54,2.7l.87-.46a1.11,1.11,0,0,1,.89-1.2,1.16,1.16,0,0,1,.44,2.27,1.11,1.11,0,0,1-.93-.25L207,58a7.82,7.82,0,0,1,.5,1.62,8,8,0,0,1,.14,1.26l2.82.12a1.09,1.09,0,0,1,1.36-.59A1.18,1.18,0,0,1,212.59,61.87Z" transform="translate(-5.28 -5.47)"/><path class="cls-34" d="M153,77.36a1.12,1.12,0,0,1-1.45.74,1.13,1.13,0,0,1-.71-.69L148,77.29a8,8,0,0,1-1.34,3.85l1.73,1.31a1.13,1.13,0,0,1,1.49.31,1.19,1.19,0,0,1-.11,1.56s0,0,0,0a.23.23,0,0,1-.07.07,1.14,1.14,0,0,1-1.61-.23,1.23,1.23,0,0,1-.2-1l-1.76-1.33a7.55,7.55,0,0,1-2.55,2l-.08,0,.88,2.21a1.16,1.16,0,1,1-.85.34l-.88-2.22c-.28.08-.56.16-.85.22a7.57,7.57,0,0,1-3.39-.12l-.51,1.33a1.22,1.22,0,0,1,.1,1.56,1.12,1.12,0,0,1-1.61.19,1.19,1.19,0,0,1-.21-1.65,1.06,1.06,0,0,1,.87-.44l.48-1.27a7.85,7.85,0,0,1-3.18-2.32L133.15,83a1.2,1.2,0,0,1-.45,1.48,1.15,1.15,0,0,1-1.58-.39,1.2,1.2,0,0,1,.37-1.63,1.1,1.1,0,0,1,1-.1l1.28-1.44a8.11,8.11,0,0,1-1.17-2.89V78l-2.43.46a1.14,1.14,0,0,1-1.22.9,1.18,1.18,0,0,1-1-1.29A1.14,1.14,0,0,1,129.12,77a1.12,1.12,0,0,1,.84.51l2.49-.47a7.72,7.72,0,0,1,.17-2.31l-1.5-.36a1.11,1.11,0,0,1-1.47.32,1.2,1.2,0,0,1-.45-1.61,1.14,1.14,0,0,1,1.56-.45,1.2,1.2,0,0,1,.57.82l1.54.37A8,8,0,0,1,134.52,71l-.74-.55a1.13,1.13,0,0,1-1.49-.3,1.22,1.22,0,0,1,.2-1.66,1.13,1.13,0,0,1,1.61.22,1.25,1.25,0,0,1,.22,1h0l.88.66a7.51,7.51,0,0,1,3.23-1.64l-.51-2a1.2,1.2,0,0,1-1-1.22,1.15,1.15,0,0,1,1.18-1.13,1.19,1.19,0,0,1,1.12,1.22,1.16,1.16,0,0,1-.44.88h0l.53,2.1h0a7.23,7.23,0,0,1,2.23.1h0a7.7,7.7,0,0,1,1.93.65l.53-1.17a1.21,1.21,0,0,1,0-1.56,1.15,1.15,0,0,1,1.63-.1,1.22,1.22,0,0,1,.11,1.67,1.11,1.11,0,0,1-.9.4l-.55,1.22a7.83,7.83,0,0,1,2.6,2.76l.9-.47a1.14,1.14,0,0,1,.9-1.23,1.19,1.19,0,0,1,.46,2.33,1.11,1.11,0,0,1-.95-.26l-.89.46a7.62,7.62,0,0,1,.51,1.66,7.3,7.3,0,0,1,.15,1.29l2.89.12a1.11,1.11,0,0,1,1.39-.59A1.19,1.19,0,0,1,153,77.36Z" transform="translate(-5.28 -5.47)"/><path class="cls-34" d="M136.76,44a1.1,1.1,0,0,1-1.41.73,1.15,1.15,0,0,1-.7-.68L131.83,44a7.84,7.84,0,0,1-1.3,3.76L132.21,49a1.11,1.11,0,0,1,1.46.3,1.17,1.17,0,0,1-.11,1.52s0,0,0,0l-.07.07a1.11,1.11,0,0,1-1.57-.23,1.2,1.2,0,0,1-.2-1L130,48.44a7.35,7.35,0,0,1-2.5,1.91l-.07,0,.85,2.16a1.14,1.14,0,0,1,1.09,1,1.12,1.12,0,1,1-2.23.21,1.11,1.11,0,0,1,.31-.92l-.85-2.16c-.28.08-.55.15-.83.21a7.36,7.36,0,0,1-3.31-.11l-.5,1.29a1.19,1.19,0,0,1,.1,1.52,1.09,1.09,0,0,1-1.57.19,1.16,1.16,0,0,1-.21-1.61,1.05,1.05,0,0,1,.85-.43l.47-1.24a7.71,7.71,0,0,1-3.1-2.26l-1.14,1.28A1.14,1.14,0,0,1,116.9,51a1.1,1.1,0,0,1-1.54-.38,1.16,1.16,0,0,1,.37-1.58,1,1,0,0,1,1-.1l1.25-1.41a8.09,8.09,0,0,1-1.14-2.82v-.08l-2.37.45a1.12,1.12,0,0,1-1.2.88,1.15,1.15,0,0,1-1-1.26,1.13,1.13,0,0,1,1.21-1,1.1,1.1,0,0,1,.82.51l2.43-.46a7.74,7.74,0,0,1,.17-2.26l-1.46-.35a1.1,1.1,0,0,1-1.44.32,1.18,1.18,0,0,1-.44-1.57,1.1,1.1,0,0,1,1.52-.45,1.2,1.2,0,0,1,.56.8l1.5.37a7.9,7.9,0,0,1,1.61-2.71l-.72-.54A1.1,1.1,0,0,1,116.5,37a1.17,1.17,0,0,1,.2-1.61,1.09,1.09,0,0,1,1.57.21,1.17,1.17,0,0,1,.22,1h0l.85.64a7.24,7.24,0,0,1,3.16-1.6l-.5-2a1.16,1.16,0,0,1-.94-1.18,1.13,1.13,0,0,1,1.14-1.11,1.16,1.16,0,0,1,1.1,1.19,1.15,1.15,0,0,1-.43.86h0l.51,2h0a7,7,0,0,1,2.19.1h0a7.59,7.59,0,0,1,1.88.64l.52-1.14a1.17,1.17,0,0,1,0-1.52,1.1,1.1,0,0,1,1.58-.1,1.18,1.18,0,0,1,.11,1.63,1.1,1.1,0,0,1-.88.39l-.53,1.19a7.81,7.81,0,0,1,2.54,2.69l.87-.45a1.11,1.11,0,0,1,.89-1.21,1.16,1.16,0,1,1-.49,2l-.86.45a8.27,8.27,0,0,1,.5,1.62,7.84,7.84,0,0,1,.14,1.26l2.82.11a1.1,1.1,0,0,1,1.36-.58A1.17,1.17,0,0,1,136.76,44Z" transform="translate(-5.28 -5.47)"/><path class="cls-34" d="M77,85.17a1.3,1.3,0,0,1-1.66.85,1.38,1.38,0,0,1-.82-.8l-3.31-.13a9.17,9.17,0,0,1-1.52,4.4l2,1.51a1.28,1.28,0,0,1,1.7.35,1.36,1.36,0,0,1-.12,1.78s0,0-.05,0a.16.16,0,0,1-.07.07A1.29,1.29,0,0,1,71.3,93a1.37,1.37,0,0,1-.24-1.13l-2-1.52a8.52,8.52,0,0,1-2.93,2.24l-.08,0,1,2.54a1.35,1.35,0,1,1-1.34,1.47,1.3,1.3,0,0,1,.37-1.08l-1-2.54c-.32.09-.64.18-1,.25a8.59,8.59,0,0,1-3.88-.13l-.58,1.52a1.39,1.39,0,0,1,.11,1.78,1.28,1.28,0,0,1-1.84.22,1.36,1.36,0,0,1-.24-1.89,1.27,1.27,0,0,1,1-.51l.55-1.45a8.9,8.9,0,0,1-3.64-2.66l-1.34,1.52a1.35,1.35,0,0,1-.51,1.69,1.31,1.31,0,0,1-1.81-.45A1.37,1.37,0,0,1,52.33,91a1.22,1.22,0,0,1,1.11-.11l1.47-1.66A9.4,9.4,0,0,1,53.58,86l0-.09-2.78.53a1.3,1.3,0,0,1-1.4,1,1.34,1.34,0,0,1-1.19-1.48,1.3,1.3,0,0,1,2.39-.61l2.84-.54a9.42,9.42,0,0,1,.2-2.66l-1.71-.4a1.3,1.3,0,0,1-1.69.37,1.39,1.39,0,0,1-.52-1.85,1.29,1.29,0,0,1,1.78-.52,1.37,1.37,0,0,1,.66.94l1.77.43a9.08,9.08,0,0,1,1.89-3.18L55,77.29A1.3,1.3,0,0,1,53.24,77a1.38,1.38,0,0,1,.23-1.9,1.29,1.29,0,0,1,1.85.26,1.43,1.43,0,0,1,.25,1.11h0l1,.75a8.5,8.5,0,0,1,3.7-1.87L59.69,73a1.37,1.37,0,0,1-1.11-1.39,1.32,1.32,0,0,1,1.35-1.3,1.36,1.36,0,0,1,1.28,1.4,1.3,1.3,0,0,1-.51,1h0l.6,2.4h0a8.13,8.13,0,0,1,2.56.11h0a8.67,8.67,0,0,1,2.2.75l.61-1.35a1.36,1.36,0,0,1,0-1.78,1.31,1.31,0,0,1,1.86-.11,1.38,1.38,0,0,1,.13,1.91,1.29,1.29,0,0,1-1,.46L67,76.51a9.1,9.1,0,0,1,3,3.16l1-.53a1.31,1.31,0,0,1,1-1.41,1.36,1.36,0,0,1,.52,2.66,1.28,1.28,0,0,1-1.09-.29l-1,.53A9.57,9.57,0,0,1,71.25,84l3.31.13a1.29,1.29,0,0,1,1.59-.68A1.38,1.38,0,0,1,77,85.17Z" transform="translate(-5.28 -5.47)"/><path class="cls-34" d="M109,111.23a1.24,1.24,0,0,1-1.58.81,1.28,1.28,0,0,1-.78-.76l-3.16-.13a8.75,8.75,0,0,1-1.46,4.21l1.89,1.43a1.23,1.23,0,0,1,1.63.34,1.3,1.3,0,0,1-.12,1.7s0,0,0,0l-.07.07a1.24,1.24,0,0,1-1.76-.25,1.33,1.33,0,0,1-.23-1.08l-1.92-1.45a8.3,8.3,0,0,1-2.79,2.14l-.09,0,1,2.42a1.28,1.28,0,1,1-1.28,1.4,1.29,1.29,0,0,1,.35-1l-1-2.43a9,9,0,0,1-.93.24,8.22,8.22,0,0,1-3.7-.12l-.56,1.45a1.34,1.34,0,0,1,.11,1.7,1.23,1.23,0,0,1-1.76.21,1.29,1.29,0,0,1-.23-1.8,1.2,1.2,0,0,1,1-.49L92,118.5A8.47,8.47,0,0,1,88.48,116l-1.27,1.44a1.3,1.3,0,0,1-.49,1.62A1.25,1.25,0,0,1,85,118.6a1.31,1.31,0,0,1,.41-1.77,1.15,1.15,0,0,1,1.06-.11l1.41-1.59A8.79,8.79,0,0,1,86.59,112v-.09l-2.66.5a1.24,1.24,0,0,1-1.34,1A1.28,1.28,0,0,1,81.45,112a1.24,1.24,0,0,1,2.28-.59l2.72-.51a8.27,8.27,0,0,1,.19-2.54L85,107.94a1.24,1.24,0,0,1-1.61.36,1.32,1.32,0,0,1-.5-1.76,1.24,1.24,0,0,1,1.7-.5,1.32,1.32,0,0,1,.63.9l1.69.41a8.73,8.73,0,0,1,1.8-3l-.81-.6a1.24,1.24,0,0,1-1.63-.33,1.32,1.32,0,0,1,.22-1.81,1.24,1.24,0,0,1,1.76.24,1.34,1.34,0,0,1,.24,1.07h0l1,.72a8.24,8.24,0,0,1,3.53-1.8l-.55-2.19a1.3,1.3,0,0,1-1.06-1.33,1.25,1.25,0,0,1,1.28-1.23,1.3,1.3,0,0,1,1.23,1.33,1.27,1.27,0,0,1-.48,1h0l.58,2.29h0a7.73,7.73,0,0,1,2.45.1h0a8.35,8.35,0,0,1,2.11.72l.58-1.29a1.3,1.3,0,0,1,0-1.7,1.25,1.25,0,0,1,1.78-.11,1.34,1.34,0,0,1,.12,1.83,1.27,1.27,0,0,1-1,.44l-.6,1.32a8.75,8.75,0,0,1,2.84,3l1-.5a1.24,1.24,0,0,1,1-1.35,1.3,1.3,0,0,1,.5,2.54,1.21,1.21,0,0,1-1-.28l-1,.51a8.87,8.87,0,0,1,.72,3.22l3.16.13a1.23,1.23,0,0,1,1.52-.65A1.32,1.32,0,0,1,109,111.23Z" transform="translate(-5.28 -5.47)"/></svg>