<?xml version="1.0" encoding="utf-8"?>
<!-- Generator: Adobe Illustrator 25.4.1, SVG Export Plug-In . SVG Version: 6.00 Build 0)  -->
<svg version="1.1" id="Layer_1" xmlns="http://www.w3.org/2000/svg" xmlns:xlink="http://www.w3.org/1999/xlink" x="0px" y="0px"
	 viewBox="0 0 422 430" style="enable-background:new 0 0 422 430;" xml:space="preserve">
<style type="text/css">
	.st0{fill:#E1E1E1;}
	.st1{fill:#F1F1F1;}
	.st2{fill:#E5ADAD;}
	.st3{fill:#C6DDC6;}
	.st4{fill:#BFD6BF;}
	.st5{fill:#DEA6A6;}
	.st6{fill:#D4D4D4;}
	.st7{font-family:'HelveticaNeue-Light';}
	.st8{font-size:40px;}
	.st9{fill:#C2E6F4;}
</style>
<path class="st0" d="M407.8,278.6c-5.3,17-12.7,33.1-22,48c-8.7,13.9-19,26.7-30.6,38.2H65.8c-5-4.9-9.8-10.1-14.3-15.5
	c-17.1-20.6-30.2-44.5-38.3-70.6H407.8z"/>
<path class="st1" d="M417,217.5c0,11.7-1,23.1-2.8,34.2H6.8C5,240.6,4,229.2,4,217.5c0-17.9,2.3-35.3,6.6-51.9h399.8
	C414.7,182.2,417,199.6,417,217.5z"/>
<path class="st1" d="M368.1,84H52.9c32.6-38.4,78.9-64.7,131.4-71.4c8.6-1.1,17.3-1.6,26.2-1.6c19.3,0,38.1,2.7,55.8,7.6
	c13.1,3.7,25.8,8.6,37.7,14.7C328.6,45.8,350.4,63.1,368.1,84C368.1,84,368.1,84,368.1,84z"/>
<g>
	<rect x="51.3" y="84" class="st2" width="82" height="82"/>
</g>
<g>
	<rect x="184.3" y="84" class="st3" width="82" height="82"/>
</g>
<g>
	<rect x="184.3" y="165.7" class="st4" width="82" height="86"/>
</g>
<g>
	<path class="st4" d="M266.3,18.6v65.3h-82V12.6c8.6-1.1,17.3-1.6,26.2-1.6C229.8,11,248.6,13.7,266.3,18.6z"/>
</g>
<g>
	<rect x="51.3" y="165.7" class="st5" width="82" height="86"/>
</g>
<path class="st6" d="M133.1,278.6v86.1H65.8c-5-4.9-9.8-10.1-14.3-15.5v-70.6H133.1z"/>
<rect x="184.5" y="278.6" class="st6" width="81.6" height="86.2"/>
<path class="st6" d="M385.8,278.6v48c-8.7,13.9-19,26.7-30.6,38.2h-51v-86.1H385.8z"/>
<text transform="matrix(1 0 0 1 214.1685 136.0505)" class="st7 st8">T</text>
<text transform="matrix(1 0 0 1 214.1683 51.9731)" class="st7 st8">T</text>
<text transform="matrix(1 0 0 1 214.1685 219.7007)" class="st7 st8">T</text>
<text transform="matrix(1 0 0 1 211.2284 332.7453)" class="st7 st8">C</text>
<text transform="matrix(1 0 0 1 78.1891 219.7004)" class="st7 st8">C</text>
<text transform="matrix(1 0 0 1 78.1891 136.0504)" class="st7 st8">C</text>
<text transform="matrix(1 0 0 1 81.1289 332.7455)" class="st7 st8">T</text>
<text transform="matrix(1 0 0 1 332.4367 332.7448)" class="st7 st8">A</text>
<g>
	<path class="st9" d="M368,84h-64V33.3C328.6,45.8,350.4,63.1,368,84z"/>
</g>
<polygon class="st0" points="210.5,424 184.5,364.8 266.1,364.8 "/>
<path class="st0" d="M355.2,364.8c-8.7,8.5-18.1,16.3-28.2,23.2l-85.1,33.6l62.4-56.9H355.2z"/>
<path class="st0" d="M133.1,364.8l-4.8,42.2l-33.3-18.3c0,0,0,0,0,0c0,0,0,0,0,0c-10.4-7-20.2-15-29.1-23.8H133.1z"/>
<g>
	<path d="M210.5,16c18.5,0,36.8,2.5,54.5,7.4c12.6,3.5,25,8.4,36.8,14.3c24,12.2,45,28.8,62.5,49.4l0.4,0.5
		c19.3,22.9,33.4,50.3,40.9,79.1c4.3,16.5,6.4,33.5,6.4,50.7c0,11.2-0.9,22.4-2.8,33.4c-1.5,8.9-3.6,17.7-6.2,26.2
		c-5.1,16.4-12.3,32.2-21.4,46.8c-8.4,13.5-18.5,26.1-29.9,37.2c-8.5,8.3-17.7,16-27.6,22.7c-25.1,17.2-53,28.2-83.1,32.8
		c-10.1,1.5-20.4,2.3-30.6,2.3c-27.9,0-54.9-5.6-80.3-16.6c-11-4.8-21.6-10.6-31.6-17.3l-0.9-1.5h-1.3c-9.6-6.6-18.8-14.2-27.2-22.4
		c-4.9-4.8-9.6-9.9-13.9-15.2c-17-20.4-29.5-43.6-37.4-68.9c-2.6-8.5-4.7-17.3-6.2-26.2c-1.8-11-2.8-22.2-2.8-33.4
		c0-17.1,2.2-34.2,6.4-50.7c7.3-28.2,21-55.1,39.7-77.6c0.5-0.6,1.1-1.3,1.6-2C89.5,48.7,135,23.9,184.9,17.6
		C193.4,16.5,201.9,16,210.5,16 M210.5,11c-8.9,0-17.6,0.6-26.2,1.6c-52.5,6.6-98.8,33-131.4,71.4c-0.6,0.7-1.1,1.3-1.7,2
		c-18.9,22.9-33,50-40.7,79.6c-4.3,16.6-6.6,34-6.6,51.9c0,11.7,1,23.1,2.8,34.2c1.5,9.2,3.7,18.2,6.4,26.9
		c8.1,26.1,21.2,50.1,38.3,70.6c4.5,5.4,9.3,10.6,14.3,15.5c9,8.8,18.7,16.8,29.1,23.8c0,0,0,0,0.1,0c0,0,0,0,0,0
		c10.5,7.1,21.6,13.2,33.3,18.3c25.2,11,53,17,82.3,17c10.7,0,21.2-0.8,31.4-2.4c31.2-4.8,60.2-16.5,85.1-33.6
		c10.1-6.9,19.5-14.7,28.2-23.2c11.6-11.4,21.9-24.2,30.6-38.2c9.3-14.8,16.7-30.9,22-48c2.7-8.7,4.8-17.7,6.4-26.9
		c1.9-11.1,2.8-22.6,2.8-34.2c0-17.9-2.3-35.3-6.6-51.9c-7.9-30.5-22.6-58.2-42.4-81.6c0,0,0,0,0,0c-17.7-20.9-39.5-38.2-64-50.7
		c-11.9-6.1-24.5-11-37.7-14.7C248.6,13.7,229.8,11,210.5,11L210.5,11z"/>
</g>
</svg>
