<svg id="Layer_1" data-name="Layer 1" xmlns="http://www.w3.org/2000/svg" viewBox="0 0 167.32 167.32"><defs><style>.cls-1{fill:#602929;stroke-width:2px;}.cls-1,.cls-14,.cls-15,.cls-16,.cls-17,.cls-18,.cls-19,.cls-2,.cls-20,.cls-26,.cls-5,.cls-6{stroke:#1d1d1b;}.cls-1,.cls-10,.cls-11,.cls-12,.cls-13,.cls-14,.cls-15,.cls-16,.cls-17,.cls-18,.cls-19,.cls-2,.cls-20,.cls-21,.cls-26,.cls-27,.cls-28,.cls-3,.cls-4,.cls-5,.cls-6,.cls-7,.cls-8,.cls-9{stroke-miterlimit:10;}.cls-2{fill:#f6f6f6;}.cls-3{fill:#5a595e;}.cls-10,.cls-11,.cls-12,.cls-13,.cls-27,.cls-28,.cls-3,.cls-4,.cls-7,.cls-8,.cls-9{stroke:#3c3c3b;}.cls-10,.cls-11,.cls-12,.cls-13,.cls-16,.cls-18,.cls-26,.cls-3,.cls-4,.cls-7,.cls-8,.cls-9{stroke-width:0.75px;}.cls-4{fill:#b8b1c4;opacity:0.39;}.cls-5{fill:#632526;}.cls-15,.cls-6{fill:#a41a16;}.cls-16,.cls-22,.cls-7{fill:none;}.cls-18,.cls-27,.cls-8{fill:#677339;}.cls-28,.cls-9{fill:#bdd99d;}.cls-10{fill:#e94f2c;}.cls-11{fill:#fcf9f7;}.cls-12{fill:#7a9e55;}.cls-13,.cls-20,.cls-25{fill:#1d1d1b;}.cls-14{fill:#e6363a;}.cls-15,.cls-17,.cls-27,.cls-28{stroke-width:0.5px;}.cls-17{fill:#d53431;}.cls-19{fill:#721819;}.cls-21{fill:#fdfdfd;stroke:#f6f6f6;stroke-width:0.15px;}.cls-23{fill:#ededed;}.cls-24{fill:#b6b8c8;}.cls-26{fill:#dadada;}</style></defs><circle class="cls-1" cx="83.66" cy="83.66" r="82.66"/><path class="cls-2" d="M169.44,113.69a1.64,1.64,0,0,1-2-.94l-3.57,0v.12a11.75,11.75,0,0,1-.85,4.42l2.22,1.7a1.56,1.56,0,0,1,1.41-.13,1.73,1.73,0,0,1,1,2.2,1.64,1.64,0,0,1-2.13,1,1.71,1.71,0,0,1-1-2l-2-1.55a11.24,11.24,0,0,1-3.87,4.17l1,1.67a1.57,1.57,0,0,1,1.36.39,1.72,1.72,0,0,1,.16,2.4,1.63,1.63,0,0,1-2.34.17,1.77,1.77,0,0,1-.29-2.24l-1.09-1.74a10.83,10.83,0,0,1-4.78,1.1c-.43,0-.85,0-1.27-.07l-.63,3.39a1.66,1.66,0,1,1-1.3-.24l.63-3.39-.12,0a10.9,10.9,0,0,1-4.17-2.07l-2.12,2.37a1.77,1.77,0,0,1,0,1.46,1.64,1.64,0,0,1-2.22.77.41.41,0,0,1-.11-.07s0,0-.06,0a1.73,1.73,0,0,1-.59-2.18,1.64,1.64,0,0,1,2-.85l2.09-2.34a11.51,11.51,0,0,1-3-5.09l-4.07,1a1.69,1.69,0,0,1-.82,1.18,1.63,1.63,0,0,1-2.26-.65,1.74,1.74,0,0,1,.65-2.32,1.62,1.62,0,0,1,2.14.46l4.07-1a11.42,11.42,0,0,1-.15-1.87,12,12,0,0,1,.26-2.5l-1.38-.41a1.63,1.63,0,0,1-1.28.63,1.72,1.72,0,0,1,0-3.43,1.65,1.65,0,0,1,1.63,1.5l1.4.41a11.47,11.47,0,0,1,2.92-4.64l-1.11-1.57a1.65,1.65,0,0,1-1.39-.32,1.75,1.75,0,0,1-.3-2.4,1.64,1.64,0,0,1,2.33-.31,1.73,1.73,0,0,1,.41,2.21l1.08,1.52a10.94,10.94,0,0,1,2.55-1.46h0a10.45,10.45,0,0,1,3.15-.76h0l.17-3.12h0A1.64,1.64,0,0,1,151,97.1a1.71,1.71,0,0,1,1.25-2,1.66,1.66,0,0,1,2,1.28,1.72,1.72,0,0,1-1,2l-.16,3a10.75,10.75,0,0,1,5,1.43l1.06-1.18h0a1.77,1.77,0,0,1,0-1.44,1.64,1.64,0,0,1,2.23-.76,1.74,1.74,0,0,1,.74,2.29,1.64,1.64,0,0,1-2,.84l-.9,1A11.55,11.55,0,0,1,162.3,107l2.08-1a1.75,1.75,0,0,1,.59-1.32,1.64,1.64,0,0,1,2.34.21,1.75,1.75,0,0,1-.2,2.41,1.62,1.62,0,0,1-2.18,0l-2,.92a11.35,11.35,0,0,1,.89,3.24l3.66,0a1.63,1.63,0,0,1,3.1.18A1.69,1.69,0,0,1,169.44,113.69Z" transform="translate(-13.04)"/><path class="cls-3" d="M147.1,97.62a9.91,9.91,0,0,0-4.43-.34c-13.63,1.78-28.45,28.09-19,38-.42-.12-.82-.27-1.2-.42h0l-.08,0a8.53,8.53,0,0,1-1-.46c-17.62-9.16,10.62-53,25.71-36.77Z" transform="translate(-13.04)"/><path class="cls-4" d="M149,108.45c0,.14,0,.28,0,.42s0,.28-.05.42h0c0,.09,0,.18,0,.27a.41.41,0,0,1,0,.11v0a33.67,33.67,0,0,1-3.5,10.66c-.06.1-.11.21-.16.3s-.17.33-.25.48-.18.31-.26.46l-.24.4c-.22.38-.45.75-.68,1.12a33.22,33.22,0,0,1-2.5,3.47,28.68,28.68,0,0,1-5.51,5.24,21.41,21.41,0,0,1-3.57,2.08,16.33,16.33,0,0,1-9,1.5,3.13,3.13,0,0,1-.42,0,6,6,0,0,1-.46-.54s-.07-.06-.07-.1h0c-8.42-10.58,6.86-36.71,20.43-37.44a9.6,9.6,0,0,1,3.6.43,12,12,0,0,1,2.22,4.41l.09.32a.5.5,0,0,1,0,.12A19.12,19.12,0,0,1,149,108.45Z" transform="translate(-13.04)"/><path class="cls-3" d="M125.83,136.59c-.17.27-.35.56-.54.84-1.13,1.74-2.51,3.85-4.41,6.52,0,0,0,.05,0,.08a4.58,4.58,0,0,0,0-1.75.06.06,0,0,0,0-.05.47.47,0,0,0-.06-.15l0-.1a.05.05,0,0,0,0,0l0,0c-.36-.7-1.14-.84-2-.84h-.37c-.63,0-1.31.08-1.93.05a4.07,4.07,0,0,1-.61-.07h-.17l5.78-6.63,0,0,.22-.25a5.85,5.85,0,0,0,.65.6h0c.06,0,.1.09.15.13h0a6.69,6.69,0,0,0,.78.54l.1.07a0,0,0,0,0,0,0A11,11,0,0,0,125.83,136.59Z" transform="translate(-13.04)"/><path class="cls-5" d="M129.31,138.7a1.69,1.69,0,0,0,.27.11,10.93,10.93,0,0,1-4.29-1.38,8.26,8.26,0,0,1-2.48-2c.16,0,.34.06.5.09a14.07,14.07,0,0,0,8.91-1.57,28.75,28.75,0,0,0,3.51-2.12l.06,0,4.43,3.3C136.61,137.67,132.69,139,129.31,138.7Z" transform="translate(-13.04)"/><path class="cls-6" d="M151.07,121.92c-.34.74-.72,1.47-1.13,2.21a33.6,33.6,0,0,1-9.72,11l-4.43-3.3-.06,0a30.1,30.1,0,0,0,3-2.57c.68-.65,1.36-1.35,2-2.1l.49-.57.57-.69a35.76,35.76,0,0,0,2.67-3.86l.24-.4c.08-.15.18-.3.26-.46a32.24,32.24,0,0,0,3.2-7.78,1.34,1.34,0,0,0,.07-.27,2.58,2.58,0,0,0,.12-.5c0-.08,0-.15.06-.22.09-.46.19-.94.27-1.4.06-.29.1-.58.14-.86s0-.28,0-.41v0a.41.41,0,0,0,0-.11,1.26,1.26,0,0,0,0-.27h0c0-.14,0-.28.05-.42s0-.28,0-.42l4.95,2.4a.06.06,0,0,0,0,0C154.09,111.69,154.44,115.63,151.07,121.92Z" transform="translate(-13.04)"/><path class="cls-5" d="M154,110.06v.06c0,.46,0,.73,0,.73l-4.95-2.4a26.69,26.69,0,0,0-.43-5.89.5.5,0,0,0,0-.12c0-.11-.05-.21-.08-.32a8.35,8.35,0,0,0-2.23-4.41h0a8.34,8.34,0,0,1,5.39,3.66,12.22,12.22,0,0,1,1.49,3.11c.13.39.24.77.34,1.17s.21,1,.3,1.48A21.08,21.08,0,0,1,154,110.06Z" transform="translate(-13.04)"/><path class="cls-7" d="M68.83,83.61c-.13.28-.26.54-.37.79-.41.9-.71,1.65-1,2.56l-.16,0a8.09,8.09,0,0,1,.4-1.38.09.09,0,0,1,0-.07A5.28,5.28,0,0,1,68.83,83.61Z" transform="translate(-13.04)"/><path class="cls-7" d="M74.13,87.67a1.58,1.58,0,0,0-.15.12,3.54,3.54,0,0,0-.42.35A1.36,1.36,0,0,1,74.13,87.67Z" transform="translate(-13.04)"/><path class="cls-7" d="M81.42,86.89h0Z" transform="translate(-13.04)"/><path class="cls-7" d="M117.51,80.79c-1.88-3.13-2.33-3.65-3.67-5.82l-.72-.2-.08,0-1.89-.57-1.32-.42-.69-.23a1.45,1.45,0,0,1,.21.22h0a10,10,0,0,1,.85,1c.2.26.39.52.56.79a.47.47,0,0,1,.09.12l0,0,.26.43a30.36,30.36,0,0,1,1.44,2.69s0,0,0,0l-.06,0h-.09s0,0,0,0h0a8,8,0,0,1-1.8,0c-.32,0-.66-.08-1-.15l-.44-.09-.08,0c-.19,0-.4-.08-.6-.13-.37-.1-.75-.22-1.13-.35a9.13,9.13,0,0,1-1.11-.49,5.84,5.84,0,0,1-.8-.48,4.93,4.93,0,0,1-.63-.5,2.5,2.5,0,0,1-.32-.33l0,0a3.9,3.9,0,0,1-.4-.51l-.11,0a11.24,11.24,0,0,1-2.94.74C111.79,88.93,121,86.4,121,86.4,120.52,85.66,119.51,84,117.51,80.79ZM127.34,93l0,0-1.54-1.4a10.05,10.05,0,0,1-.75.68l-.39.3-.45.33c-.73.55-.54.71.1,4l2.24.2a2.79,2.79,0,0,0,1.77-1.69.64.64,0,0,0,.06-.18h0A2.2,2.2,0,0,0,127.34,93Z" transform="translate(-13.04)"/><path class="cls-8" d="M126.51,96.92c-2.77,1.24-7.35-.78-10.21-.67,0-.12-.64-2.2-5.26-4.08a25.28,25.28,0,0,0-4.89-1.46,11.39,11.39,0,0,0-2.67-.23h0L102,89.63l-.31-.19-.29-.17-.23-.14-.31-.19c-.52-.31-1-.65-1.58-1-.22-.15-.46-.3-.7-.44l-.37-.24h0L97.73,87h0c-1.28-.82-2.59-1.67-3.93-2.47h0l-.44-.28h0a44,44,0,0,0-5.55-2.84l-.1,0a19.79,19.79,0,0,0-8.83-1.68,18.1,18.1,0,0,0-10,4,4.77,4.77,0,0,1,.37-1.18,8.59,8.59,0,0,1,4-3.73l0,0a20.8,20.8,0,0,1,6.08-2h0a4.85,4.85,0,0,1,1.38,0s7.15.49,11.29-.19h0a4.74,4.74,0,0,0,2.58-1c.52-.57.2-1.37-1.5-2.49-.36-.24-.72-.5-1.06-.77a23,23,0,0,1-6.77-9h0c-.07-.14-.13-.29-.19-.44,3.17,1.51,7.21,3.56,11.13,5.46l.62.3c.4.19.8.37,1.2.57s.7.31,1,.48c2.39,1.12,4.65,2.13,6.55,2.84a15.28,15.28,0,0,0-2.76,0,1.6,1.6,0,0,0-.11,1.5.12.12,0,0,0,0,.08A5.49,5.49,0,0,0,104,75.92l-.11,0a11.06,11.06,0,0,1-2.94.72c10.81,12.19,20.06,9.7,20.06,9.7a27.77,27.77,0,0,0,4.74,5.13c-.28.27-.53.49-.75.67l-.39.29-.45.33c-.73.54-.54.7.1,3.92Z" transform="translate(-13.04)"/><path class="cls-9" d="M121,86.4s-9.25,2.53-20.06-9.86a11.24,11.24,0,0,0,2.94-.74l.11,0a3.9,3.9,0,0,0,.4.51l0,0a2.5,2.5,0,0,0,.32.33,4.93,4.93,0,0,0,.63.5,5.84,5.84,0,0,0,.8.48,9.13,9.13,0,0,0,1.11.49c.38.13.76.25,1.13.35.2,0,.41.1.6.13l.08,0,.44.09,1,.15a8,8,0,0,0,1.8,0h0l.06,0h0l.06,0s0,0,0,0a30.36,30.36,0,0,0-1.44-2.69c-.1-.15-.19-.3-.28-.45a.47.47,0,0,0-.09-.12c-.17-.27-.36-.53-.56-.79a10,10,0,0,0-.86-1,1.45,1.45,0,0,0-.21-.22l.69.23,1.32.42,1.89.57.08,0,.72.2.45.12C116.29,78.4,119,83,121,86.4Z" transform="translate(-13.04)"/><path class="cls-10" d="M128.85,95.36l-.11.09-1.94,1.66-2.46-.2c-.7-3.22-.91-3.38-.11-3.92l.5-.32.43-.3c.24-.18.51-.39.82-.67s1.1.42,1.68,1.38a19.42,19.42,0,0,1,1.14,2.18h0A.44.44,0,0,1,128.85,95.36Z" transform="translate(-13.04)"/><path class="cls-11" d="M112.58,78.78c-1.55,1-11.21-1.87-9.68-6.53a14.85,14.85,0,0,1,2.77,0C109.23,72.89,111.38,75.76,112.58,78.78Z" transform="translate(-13.04)"/><path class="cls-9" d="M116.65,96.43c-6.46-.2-13-2.82-19.53-5.31h0c-1.16-.43-2.31-.86-3.47-1.27l-.49-.18h0a64.09,64.09,0,0,0-6.61-2l-.63-.14a31.29,31.29,0,0,0-4.22-.72h-.09l-.85-.12c-.55-.06-1.08-.11-1.58-.13l-.61,0h0a3.39,3.39,0,0,0-.45,0h-.34l-.46,0-.33.06-.21,0-.4.1-.37.1a4.38,4.38,0,0,0-1,.45,1,1,0,0,0-.27.17,4.17,4.17,0,0,0-.44.29,3.7,3.7,0,0,0-.42.37s-.25.51-.26.51L67.66,87a5,5,0,0,1,1-2.67c2.3-3.13,7.83-4.67,10.37-5.1.86-.15,1.38-.19,1.33-.11,1.6-.59,4.4.3,7.52,1.82l.1,0c1.73.85,3.54,1.89,5.32,2.94h0l.5.3c1.45.87,2.85,1.76,4.12,2.59h0l.44.3h0l.38.24c.24.16.48.31.7.47l1.59,1,.31.2.23.14.29.19.31.19a14.53,14.53,0,0,0,1.5.88h0a10.73,10.73,0,0,1,2.67.23,23.9,23.9,0,0,1,4.9,1.5C116,94.11,116.62,96.31,116.65,96.43Z" transform="translate(-13.04)"/><path class="cls-7" d="M68.83,83.61c-.13.28-.26.54-.37.79-.41.9-.71,1.65-1,2.56l-.16,0a8.09,8.09,0,0,1,.4-1.38.09.09,0,0,1,0-.07A5.28,5.28,0,0,1,68.83,83.61Z" transform="translate(-13.04)"/><path class="cls-7" d="M74.42,87.51l-.15.08" transform="translate(-13.04)"/><path class="cls-12" d="M94.65,75.35c-.09.5-.84.81-2.58,1h0c-2.13.21-5.71.24-11.29.19q-.67,0-1.38.06h0a14.93,14.93,0,0,0-6.08,2l0,0a12.82,12.82,0,0,0-5.51,6.85.09.09,0,0,0,0,.07,13.89,13.89,0,0,0-.4,1.38,123.67,123.67,0,0,0-29.14-4.4A153.74,153.74,0,0,1,54.17,58.57c1.53-2.09,3.09-4.13,4.71-6l.13-.15c3.88,1.1,6.89,2,9.4,2.79a.9.9,0,0,0,.22.06c3,1,5.32,1.83,7.61,2.82l.07,0c.26.12.54.24.8.34l.16.08.93.43.19.09c1.87.88,3.87,1.9,6.34,3.18l.39.2c.06.15.13.3.2.44A31.43,31.43,0,0,0,92.09,72C93.66,73.61,94.77,74.66,94.65,75.35Z" transform="translate(-13.04)"/><path class="cls-7" d="M68.83,83.61c-.13.28-.26.54-.37.79-.41.9-.71,1.65-1,2.56l-.16,0a8.09,8.09,0,0,1,.4-1.38.09.09,0,0,1,0-.07A5.28,5.28,0,0,1,68.83,83.61Z" transform="translate(-13.04)"/><circle class="cls-13" cx="97.41" cy="77.4" r="1.19"/><path class="cls-7" d="M193.26,87.28" transform="translate(-13.04)"/><path class="cls-7" d="M109.72,153.68c0,.46-.06.93-.1,1.42,0,.15,0,.3-.05.46l0,.29c0,.26-.06.52-.1.79s-.11.74-.17,1.11-.12.68-.19,1-.14.7-.22,1.06l-.06.26c-.1.41-.2.83-.31,1.25l-.06.24c-.1.38-.21.77-.32,1.16s-.23.79-.36,1.19-.3.93-.46,1.41h-.14a43.17,43.17,0,0,0,2.23-10.91l0-.65v-.12a.76.76,0,0,0,0-.15v-.15a1.48,1.48,0,0,0,0-.21,24.94,24.94,0,0,0-1.05-8.12l.13-.27s0,0,0,0A23.1,23.1,0,0,1,109.72,153.68Z" transform="translate(-13.04)"/><path class="cls-7" d="M115.55,141.82l-.17.21a4.73,4.73,0,0,0-.47-.2Z" transform="translate(-13.04)"/><path class="cls-14" d="M101.45,105.43a56.64,56.64,0,0,0-6.54,2A214.17,214.17,0,0,0,75.63,96.55l-1.56-.79c-4.18-2.05-8.45-4-12.64-5.7-2.26-.92-4.5-1.78-6.69-2.56q-2.37-.85-4.67-1.56a68,68,0,0,0-11.4-2.62l-.53-.07a0,0,0,0,1,0,0L38.3,83a1.51,1.51,0,0,1,.11-.22A116,116,0,0,1,75,89.63l.54.2q2.88,1.08,5.69,2.35l.36.16c.8.36,1.59.74,2.38,1.14.18.08.37.17.55.27A69.46,69.46,0,0,1,101.45,105.43Z" transform="translate(-13.04)"/><path class="cls-15" d="M109.42,153.1v.45a.76.76,0,0,1,0,.15v.12c0,.2,0,.4,0,.6v0c0,.06,0,.12,0,.18s0,.39,0,.59,0,.68-.09,1a37.78,37.78,0,0,1-.9,5.45s0,0,0,0c0,.16-.09.32-.14.48v0c-.07.31-.16.62-.25.94s-.23.82-.36,1.22l-.09.3h0c-.07.23-.15.46-.23.69h-.11l-.19,0c-2.91.3-10.88.55-16.55.61H88.22c-1,0-2,0-2.62,0h0l.18-.17.27-.26c2-1.95,4.33-4,6.58-6.07a46.78,46.78,0,0,0,8.75-10.13.62.62,0,0,0-.1-.66S85,152.35,74.05,162.92l-.48.46h0l-.16,0-.16-.05h0l-1.61-.49h0l.63-.41,1.8-1.2.61-.4.28-.18,1.09-.73,1.63-1.07,1.65-1.08.15-.1.75-.49,2.88-1.88,1.74-1.14,1.42-.92,1.86-1.2,4.13-2.64,1-.62,2.08-1.31,1.62-1,1.66-1,.19-.12.57-.34c1-.58,1.83-1.07,2.53-1.44l.69-.36.18-.09.22-.1.21-.1a2.54,2.54,0,0,1,.34-.13l.16-.05h.11l-.1,0L98,141.71h0l1-.29.24-.08.3-.1.37-.12.3-.1,4.54-1.42h.07l.37-.12,0,0s0,0,0,0,0,0,0,0h0a16.31,16.31,0,0,1,2.27,3.75l.11.24a4.77,4.77,0,0,1,.22.52A25,25,0,0,1,109.42,153.1Z" transform="translate(-13.04)"/><path class="cls-7" d="M107.59,164.36l-.09.3-.21.7h0c.08-.23.16-.46.23-.69Z" transform="translate(-13.04)"/><path class="cls-16" d="M109.62,155.1c0,.15,0,.3-.05.46a50,50,0,0,1-1.22,6.12s0,0,0,0c0,.16-.09.32-.14.48a41.73,41.73,0,0,0,1-6q.06-.51.09-1c0-.2,0-.39,0-.59v-.15a0,0,0,0,1,0,0v0c0-.2,0-.4,0-.6v-.12a.76.76,0,0,0,0-.15v-.45a22.53,22.53,0,0,0-1.55-9.06,4.77,4.77,0,0,0-.22-.52l-.11-.24a12.66,12.66,0,0,0-.63-1.14c-.54-.92-1.09-1.77-1.65-2.61h0a18.29,18.29,0,0,1,3.26,5.21A20.73,20.73,0,0,1,109.62,155.1Z" transform="translate(-13.04)"/><path class="cls-17" d="M86.49,166c5.1-4.88,16.25-15.9,14.66-17.31a83.7,83.7,0,0,0-12.09,4.49h0a54.37,54.37,0,0,0-15,9.83h0a.47.47,0,0,0-.14.46C75.6,163.71,83.94,166,86.49,166Z" transform="translate(-13.04)"/><path class="cls-7" d="M77.18,97.38C61.41,89.22,43.56,83.87,29.05,82.82c-1.09-.09-2.16-.14-3.21-.17.81-.06,1.62-.09,2.44-.09a58.13,58.13,0,0,1,9.82.67h0l.52.08a86.35,86.35,0,0,1,11.4,2.62c2.3.68,4.62,1.46,6.94,2.31,2.72,1,5.45,2.1,8.17,3.3l.06,0c3,1.3,5.91,2.71,8.83,4.19l1.56.79Z" transform="translate(-13.04)"/><path class="cls-7" d="M28.73,82.69c-1.88-.08-2.89,0-2.89,0A3.47,3.47,0,0,1,28,82.5l.24.06A3.81,3.81,0,0,1,28.73,82.69Z" transform="translate(-13.04)"/><path class="cls-6" d="M97.47,117.7l-3.08,9.19-.2.61-.11.33c-.22-.32-.46-.66-.72-1l0,0c-2.64-3.4-7.54-7.18-17.36-1.62l-.13,0h0c-.25.05-.56.12-.9.16h-.27c-5.78.63-23-.55-34.79-5.25l-.1,0a.05.05,0,0,1,0,0c-5.11-2.05-9.19-4.77-10.86-8.29,0,0,.38.23,1.06.58,3.76,2,16.49,8.2,22.29,3a6.61,6.61,0,0,0,1.06-1.21l-.43-.45c-2.55-2.84-11-13.22-14.46-19.77l-.09-.18c-.05-.1-.09-.19-.14-.27-1-2-1.52-3.54-1.23-4.39h0a.47.47,0,0,1,.06-.15l0,0-.1-.1a27.59,27.59,0,0,0-7.21-5.76c-.27-.14-.54-.27-.81-.38l-.33-.13c.58,0,1.2,0,1.84.08a108.06,108.06,0,0,1,15.74,2.46c3,.68,6,1.47,8.76,2.32.64.2,1.26.4,1.85.61l.45.15c3.55,1.19,6.93,2.43,10.23,3.82a148.81,148.81,0,0,1,27.38,15l.77.52c-6.82,2.33-11.9,5.37-12.51,7.59h0c-.59,2.2,3.23,3.59,14.15,2.61Z" transform="translate(-13.04)"/><path class="cls-18" d="M119.38,153.3h0c-.46,3.54-2.88,7.86-5.5,11a51.51,51.51,0,0,1-6.58,1,44.32,44.32,0,0,0,2.52-10.13c0-.17,0-.32,0-.48a23.11,23.11,0,0,0-1.21-10.69v0a3.87,3.87,0,0,1,3.37-2.32l0-.36a18.4,18.4,0,0,1,3.57-.32h.15a3.9,3.9,0,0,1,.5.19l.11-.12.07-.09h.08c.77,0,1.5,0,2.14,0h0c1,.08,1.7.29,2,.84l0,0a.05.05,0,0,1,0,0l0,.1a1.7,1.7,0,0,1,0,1.17,7.39,7.39,0,0,1-.76,1.8,3.07,3.07,0,0,1,.56.07,3.46,3.46,0,0,1,.83.23c.91.36,1.68,1.14.36,2.77C121.74,148.12,125.32,149.9,119.38,153.3Z" transform="translate(-13.04)"/><path class="cls-14" d="M93.76,127.37l-.2-.18a2.07,2.07,0,0,1-.59-.4,1.37,1.37,0,0,0-.16-.18l0,0s0,0,0,0l0,0a35.93,35.93,0,0,0-3.54-2.68c-.38-.22-.77-.42-1.16-.6s-.53-.23-.8-.33l-.41-.14a8.19,8.19,0,0,0-.81-.23A8,8,0,0,0,79,124a20.4,20.4,0,0,1-3.58,1h0l-.67.11-.34.05h-.15l-.22,0c-8.94,1.23-23.07-.34-33.56-5L39.9,120l-.1,0,0,0a28.33,28.33,0,0,1-9.39-6.5c-.1-.11-.2-.23-.29-.35a13.36,13.36,0,0,1-1-1.36s16.31,9.63,23.06,3.51a6.24,6.24,0,0,0,.63-.87l.17-.31-.11-.12-.22-.26c-.64-.75-2.18-2.58-4-5-.27-.34-.54-.7-.82-1.07a118.09,118.09,0,0,1-8.83-12.77c-.16-.28-.3-.55-.44-.81l-.09-.18q-.15-.27-.27-.54A10,10,0,0,1,37,90h0a1.37,1.37,0,0,1,0-.28,2.11,2.11,0,0,1,.09-.64h0a18.89,18.89,0,0,0-7.2-5,21.64,21.64,0,0,0-3.44-1c.13.42.25.83.37,1.24s.19.66.28,1a53.31,53.31,0,0,1,2.17,12.11q.06,1.21,0,2.31a22.55,22.55,0,0,1-.17,2.28,13.63,13.63,0,0,1-.21,1.35s0,0,0,0c-.05.27-.11.53-.17.79h0c-.05.22-.11.44-.17.66s-.13.43-.2.63a5.29,5.29,0,0,1-.21.6,7.87,7.87,0,0,1-.47,1.11c-.08.17-.17.35-.26.51s-.18.33-.27.49-.18.32-.28.47l-.27.41a13,13,0,0,1-1.95,2.18,16.38,16.38,0,0,1-3,2.11l-.44.25a78.07,78.07,0,0,0,8.62,17.62l.3.43a78.32,78.32,0,0,0,31.69,27.42l.39-.53.68-.93L64,156c.3-.41.6-.8.89-1.17l.31-.41c.73-.94,1.38-1.76,1.91-2.36l-2.62,7.4-.22.61a77.75,77.75,0,0,0,7.34,2.74h0l.4-.49.83-1c.86-1,1.81-2,2.84-3.12.26-.28.53-.55.8-.83l.83-.83c.84-.84,1.73-1.68,2.66-2.52.46-.42.93-.83,1.41-1.24.73-.63,1.48-1.24,2.24-1.84s1.53-1.18,2.33-1.73h0c1.1-.78,2.22-1.5,3.37-2.18l.64-.36c.42-.24.85-.47,1.28-.7.67-.34,1.35-.68,2-1l.44-.2.65-.26.84-.32.38-.14c.22-.07.43-.15.65-.21l.08,0a6.59,6.59,0,0,1,.72-.22l.3-.08c.33-.1.67-.19,1-.26a21.85,21.85,0,0,1,5.32-.62l1.16.05-6.84-1h0a7.1,7.1,0,0,0,1-.29l.24-.08.3-.1.37-.12.3-.1c1.58-.53,3.59-1.21,4.54-1.42h.07a1.57,1.57,0,0,1,.42,0h0s.06,0,.06,0l.33-.1C102.48,134.78,95.28,128.72,93.76,127.37Zm-6.7,12.09-.35-.42v.1l-6.93-8.23.31.09a1.78,1.78,0,0,1,.29.12h.06a4.66,4.66,0,0,1,.45.22c.26.13.51.29.78.46l.1.07.42.31.42.34h0a4.6,4.6,0,0,1,.46.43c.12.09.24.21.36.32l.29.29.29.3.27.3a2.61,2.61,0,0,1,.27.31l.27.31.31.39.27.35c.2.28.4.55.57.82s.16.24.23.36l.27.45,0,.1c.09.16.17.32.24.47s0,0,0,.05.14.31.2.46a1.9,1.9,0,0,1,.09.29,1.79,1.79,0,0,1,.1.56h0A.58.58,0,0,1,87.06,139.46Z" transform="translate(-13.04)"/><path class="cls-19" d="M67.12,152.05l-2.84,8c-.83-.35-1.65-.73-2.46-1.12C63.76,156.29,65.83,153.53,67.12,152.05Z" transform="translate(-13.04)"/><path class="cls-7" d="M116.73,96.33h0Z" transform="translate(-13.04)"/><path class="cls-19" d="M103.68,142.69c-3.09.73-32.48,20.49-30.76,18.53.28-.33.58-.65.88-1s.59-.66.91-1c.92-1,1.9-2,2.92-3,.51-.5,1-1,1.55-1.48.81-.75,1.63-1.48,2.47-2.19s1.69-1.4,2.56-2.07a0,0,0,0,0,0,0C90.14,146,96.86,142.6,103.68,142.69Z" transform="translate(-13.04)"/><path class="cls-20" d="M87.06,139.46l-.35-.42v.1l-6.93-8.23C83.33,131.79,88,138.4,87.06,139.46Z" transform="translate(-13.04)"/><path class="cls-7" d="M0,17.85" transform="translate(-13.04)"/><path class="cls-21" d="M98.48,89.29c-1.63.14-3.21.32-4.71.53a98.32,98.32,0,0,0-12.15,2.52c-1.64.45-2.67.8-2.9.87.82-.37,1.67-.72,2.54-1a51.5,51.5,0,0,1,12-2.54h0C95,89.47,96.78,89.35,98.48,89.29Z" transform="translate(-13.04)"/><path class="cls-21" d="M117.46,90.34a107,107,0,0,0-15.66-1.11c-1.06,0-2.16,0-3.27.06,1-.09,2-.15,3-.2A59.32,59.32,0,0,1,117.46,90.34Z" transform="translate(-13.04)"/><path class="cls-21" d="M78.72,85.07s21.55-3.33,38.7,4C117.42,89.07,94.49,81,78.72,85.07Z" transform="translate(-13.04)"/><path class="cls-21" d="M90.92,87.18c-1.46.13-2.88.29-4.25.47a96.41,96.41,0,0,0-11.1,2.18c-2.29.59-3.82,1.08-4.29,1.23A31.87,31.87,0,0,1,75,89.63a54,54,0,0,1,11-2.12C87.68,87.34,89.32,87.24,90.92,87.18Z" transform="translate(-13.04)"/><path class="cls-21" d="M109.92,88.23a103.7,103.7,0,0,0-11.31-1h0c-2.35-.09-4.93-.12-7.62,0,2.31-.19,4.71-.3,7.16-.27h0A54.78,54.78,0,0,1,109.92,88.23Z" transform="translate(-13.04)"/><path class="cls-7" d="M81.78,86.79" transform="translate(-13.04)"/><path class="cls-22" d="M93.27,89.64a51.5,51.5,0,0,0-12,2.54q-2.81-1.28-5.69-2.35a96.41,96.41,0,0,1,11.1-2.18C88.87,88.18,91.07,88.87,93.27,89.64Z" transform="translate(-13.04)"/><path class="cls-16" d="M169.44,113.69a1.64,1.64,0,0,1-2-.94l-3.57,0v.12a11.75,11.75,0,0,1-.85,4.42l2.22,1.7a1.56,1.56,0,0,1,1.41-.13,1.73,1.73,0,0,1,1,2.2,1.64,1.64,0,0,1-2.13,1,1.71,1.71,0,0,1-1-2l-2-1.55a11.24,11.24,0,0,1-3.87,4.17l1,1.67a1.57,1.57,0,0,1,1.36.39,1.72,1.72,0,0,1,.16,2.4,1.63,1.63,0,0,1-2.34.17,1.77,1.77,0,0,1-.29-2.24l-1.09-1.74a10.83,10.83,0,0,1-4.78,1.1c-.43,0-.85,0-1.27-.07l-.63,3.39a1.66,1.66,0,1,1-1.3-.24l.63-3.39-.12,0a33.6,33.6,0,0,1-9.72,11c-3.61,2.54-7.53,3.84-10.91,3.57a1.69,1.69,0,0,0,.27.11,10.93,10.93,0,0,1-4.29-1.38c-1.13,1.74-2.51,3.85-4.41,6.52,0,0,0,.05,0,.08a4.58,4.58,0,0,0,0-1.75.06.06,0,0,0,0-.05.47.47,0,0,0-.06-.15,1.7,1.7,0,0,1,0,1.17,7.39,7.39,0,0,1-.76,1.8,3.07,3.07,0,0,1,.56.07,3.46,3.46,0,0,1,.83.23c.91.36,1.68,1.14.36,2.77,0,0,3.58,1.78-2.36,5.18h0c-.46,3.54-2.88,7.86-5.5,11a51.51,51.51,0,0,1-6.58,1,44.32,44.32,0,0,0,2.52-10.13c0-.17,0-.32,0-.48a23.11,23.11,0,0,0-1.21-10.69v0a3.87,3.87,0,0,1,3.37-2.32l0-.36a18.4,18.4,0,0,1,3.57-.32h0l5.78-6.63,0,0c-17.62-9.16,10.62-53,25.71-36.77l0,0a9.91,9.91,0,0,0-4.43-.34,9.6,9.6,0,0,1,3.6.43h0a8.34,8.34,0,0,1,5.39,3.66h0l.17-3.12h0A1.64,1.64,0,0,1,151,97.1a1.71,1.71,0,0,1,1.25-2,1.66,1.66,0,0,1,2,1.28,1.72,1.72,0,0,1-1,2l-.16,3a10.75,10.75,0,0,1,5,1.43l1.06-1.18h0a1.77,1.77,0,0,1,0-1.44,1.64,1.64,0,0,1,2.23-.76,1.74,1.74,0,0,1,.74,2.29,1.64,1.64,0,0,1-2,.84l-.9,1A11.55,11.55,0,0,1,162.3,107l2.08-1a1.75,1.75,0,0,1,.59-1.32,1.64,1.64,0,0,1,2.34.21,1.75,1.75,0,0,1-.2,2.41,1.62,1.62,0,0,1-2.18,0l-2,.92a11.35,11.35,0,0,1,.89,3.24l3.66,0a1.63,1.63,0,0,1,3.1.18A1.69,1.69,0,0,1,169.44,113.69Z" transform="translate(-13.04)"/><path class="cls-21" d="M77.48,95.85S97.81,88,116.13,91.46C116.13,91.46,92,88.49,77.48,95.85Z" transform="translate(-13.04)"/><circle class="cls-23" cx="97.55" cy="76.67" r="0.42"/><path class="cls-24" d="M129.73,75.07" transform="translate(-13.04)"/><path class="cls-22" d="M119.62,51.9a34.18,34.18,0,0,0-5.74-2.59c.42.11.86.25,1.31.4l1,.39.45.19q.39.16.78.36c.24.12.49.24.74.38C118.65,51.29,119.14,51.58,119.62,51.9Z" transform="translate(-13.04)"/><path class="cls-22" d="M119.62,51.9a34.18,34.18,0,0,0-5.74-2.59c.42.11.86.25,1.31.4l1,.39.45.19q.39.16.78.36c.24.12.49.24.74.38C118.65,51.29,119.14,51.58,119.62,51.9Z" transform="translate(-13.04)"/><path class="cls-14" d="M118.28,52.44h0l0,0-.07,0c-.48-.32-1-.61-1.44-.87-.25-.14-.5-.26-.74-.38s-.52-.25-.78-.36l-.45-.19-1-.39c-.45-.15-.89-.29-1.31-.4h0l-.09,0c-5.28-1.52-20.65-4.6-20.65-4.6a81.12,81.12,0,0,0-12-1.27c-3-.13-6.46-.15-10.27,0-13.72.65-20,2.59-20,2.59a16.56,16.56,0,0,0-1.37,5.45,32.38,32.38,0,0,0,.49,8.93v0s-5.76,7.56-11,9.23c-3.64,1.16-6.56,8.56-8,13-.64,1.94-1,3.31-1,3.31S28.2,85,28,83c-.4-3.58-.73-9.2.46-12.88A14.48,14.48,0,0,1,34.69,62a16.22,16.22,0,0,0,3-7.44c1.77-4.61.47-10.88,2.84-16a34,34,0,0,1,6.85-9.22C58.69,20,69.1,19.61,69.1,19.61,81.75,26,92.39,25.16,92.39,25.16c8.86,5.44,19.5,12.77,19.5,12.77C116.27,42.78,118.28,52.44,118.28,52.44Z" transform="translate(-13.04)"/><path class="cls-2" d="M34.79,97.56c-5.76,5.1-10.44,1.56-10.44,1.56-6.75-4-5.27-9.55-5.27-9.55,0-6.57,7.29-6.47,7.29-6.47A13.23,13.23,0,0,1,28,83c.22,2,.46,3.4.46,3.4s.35-1.37,1-3.31c4.55.56,5.36,3.85,5.36,3.85A13.24,13.24,0,0,1,34.79,97.56Z" transform="translate(-13.04)"/><path class="cls-20" d="M37.43,70.12c3.21-4.06,3.35-6.86,3.35-6.86S37.49,68.82,36,70.93Z" transform="translate(-13.04)"/><path class="cls-20" d="M34.69,62c2.76-1.8,5.44-7.29,5.44-7.29a5.89,5.89,0,0,1-.69,3.41,3.93,3.93,0,0,1-1.33,1.36C36.43,60.6,31.52,64.1,34.69,62Z" transform="translate(-13.04)"/><path class="cls-25" d="M65.76,34.12S54.68,35.64,50,42.52c0,0-3.46-3.49,6.7-10.91,0,0-5.41,5.17-5.57,7.42C51.15,39,62.8,32.59,65.76,34.12Z" transform="translate(-13.04)"/><path class="cls-25" d="M72.69,29.2s7.92-2,8.92-1.2,9-.43,9.09-.87,6.82-.11,7.28,1C98,28.17,93.43,21.56,72.69,29.2Z" transform="translate(-13.04)"/><path class="cls-26" d="M33.14,84.22s3.13,6.87-8.73,14.48c0,0,6.5,4.11,11.87-.59C36.28,98.11,40.65,89.77,33.14,84.22Z" transform="translate(-13.04)"/><path class="cls-27" d="M107.39,43.61c-1.53,4.6-6.57,9.51-11.93,8a23.41,23.41,0,0,0,8.81-14.08c-3.27,1.1-5.88,1.72-8.53,3.26-.09.1-.27.25-.17.34-5.44,3.49-3.27,7.08-5.81,9.93a19.83,19.83,0,0,0-2.39-.85c-3.06-8.36,3-14,9.25-14.25C103.41,35,112.19,34,107.39,43.61Z" transform="translate(-13.04)"/><path class="cls-28" d="M104.27,37.49a23.35,23.35,0,0,1-8.81,14.08L89.76,51c2.54-2.84.38-6.44,5.81-9.93-.1-.09.08-.24.17-.34C98.39,39.21,101,38.59,104.27,37.49Z" transform="translate(-13.04)"/><path class="cls-2" d="M125,65c0,5.15-3.88,9.08-5.63,10.59a2.09,2.09,0,0,1-1.84.46c-4.39-1-22.32-5.32-32.84-11,0,0-15.92,1.62-30.61-1.79,0,0-4.44-.65-5.67-2.37v0c0-.43-.44-4.81-.49-8.93a16.56,16.56,0,0,1,1.37-5.45s6.33-1.94,20-2.59c3.81-.18,7.28-.16,10.27,0A55.65,55.65,0,0,1,90.07,45.4c3.21,1.05,18.61,3.74,18.61,3.74a17.08,17.08,0,0,1,3.61.59l.09,0h0a34.18,34.18,0,0,1,5.74,2.59l.07,0,0,0h0a18.44,18.44,0,0,1,4,3.55S125,58.32,125,65Z" transform="translate(-13.04)"/><path class="cls-26" d="M60.06,44.61s9.73,13,23.75,19.08l3.06,2.44-3.29-.62s-28.06.69-35.16-4.65c0,0-1.4-11.52.88-14.38Z" transform="translate(-13.04)"/></svg>