<svg id="Layer_1" data-name="Layer 1" xmlns="http://www.w3.org/2000/svg" viewBox="0 0 182.54 163.9"><defs><style>.cls-1{fill:#746561;}.cls-1,.cls-10,.cls-11,.cls-12,.cls-13,.cls-14,.cls-15,.cls-16,.cls-17,.cls-18,.cls-19,.cls-2,.cls-20,.cls-21,.cls-22,.cls-23,.cls-24,.cls-25,.cls-26,.cls-27,.cls-28,.cls-29,.cls-3,.cls-30,.cls-31,.cls-4,.cls-5,.cls-6,.cls-7,.cls-8,.cls-9{stroke:#1d1d1b;stroke-miterlimit:10;}.cls-2{fill:#985152;}.cls-3{fill:#e17a7a;}.cls-4{fill:#a6797b;}.cls-5{fill:#edafaf;}.cls-6{fill:#ffd3ca;}.cls-7{fill:#3a8282;}.cls-8{fill:#887871;}.cls-9{fill:#927b79;}.cls-10{fill:#a8837a;}.cls-11{fill:#1b1818;}.cls-12{fill:#fbcdc3;}.cls-13{fill:#a6635e;}.cls-14{fill:#ae5e5e;}.cls-15{fill:#595655;}.cls-16{fill:none;}.cls-17{fill:#776a63;}.cls-18{fill:#117b7b;}.cls-19{fill:#916b66;}.cls-20{fill:#bb8b85;}.cls-21{fill:#9b7c6e;}.cls-22{fill:#b48371;}.cls-23{fill:#4daeae;}.cls-24{fill:#713d3d;}.cls-25{fill:#492828;}.cls-26{fill:#71bebe;}.cls-27{fill:#a95c5c;}.cls-28{fill:#419595;}.cls-29{fill:#a15757;}.cls-30{fill:#623535;}.cls-31{fill:#265757;}</style></defs><path class="cls-1" d="M99.36,85.17,96,87.63s5.34,6.41,7.25,11.75l17.54-1.85S126,86.59,123,81.46L103.6,90.63S100.17,84.93,99.36,85.17Z" transform="translate(-8.95 -1.99)"/><path class="cls-2" d="M120.57,82.35l-18.42,9.22c-2.74-6.13-9.6-9.43-9.6-9.43l2.17-3.91,5.82,4.26,14.22-9.06A25.8,25.8,0,0,1,120.57,82.35Z" transform="translate(-8.95 -1.99)"/><path class="cls-3" d="M147.84,138.94l-32.2-28.73s3-4.38,3.93-6.39l2.47,1.42-2.12,3.47,32.88,24S149.31,137.31,147.84,138.94Z" transform="translate(-8.95 -1.99)"/><path class="cls-4" d="M141.85,145l-31.09-34.11a45.2,45.2,0,0,0,4.48-5.54l2.37,1.85-2,3L147.85,139S143.61,143.47,141.85,145Z" transform="translate(-8.95 -1.99)"/><path class="cls-5" d="M135.5,150.23l-15.15-21.18s-2.57,2.58-5,3.08l13,22.75A47.05,47.05,0,0,0,135.5,150.23Z" transform="translate(-8.95 -1.99)"/><path class="cls-2" d="M121.16,158.57l-11.7-26.48s5.42-2.13,7-3.75L118,131l-2.64,1.18,13,22.75S123.92,157.36,121.16,158.57Z" transform="translate(-8.95 -1.99)"/><path class="cls-6" d="M113.49,161.52l-10.21-30.23s7.82-2.42,8.66-3.6l1.37,2.67-3.83,1.72,11.69,26.44A76.31,76.31,0,0,1,113.49,161.52Z" transform="translate(-8.95 -1.99)"/><path class="cls-7" d="M106,163.57,98.21,130s6.7-1.51,8.44-2.7l.91,2.52-4.31,1.46,10.24,30.22S108,163.11,106,163.57Z" transform="translate(-8.95 -1.99)"/><path class="cls-3" d="M97.25,165l-3.68-36.66s6.1-1.47,8.48-3.06l.68,3.58L98.21,130,106,163.57A46.27,46.27,0,0,1,97.25,165Z" transform="translate(-8.95 -1.99)"/><path class="cls-8" d="M88.84,165.38l.67-25.77c-.74.43-5.07.13-5.82-.19L80.9,164.93S85.92,165.43,88.84,165.38Z" transform="translate(-8.95 -1.99)"/><path class="cls-9" d="M86.68,139.8,87,125.43A30,30,0,0,0,96.63,124l1.12,3.12-4.17,1.19L97.25,165a65.61,65.61,0,0,1-8.41.4l.67-25.77Z" transform="translate(-8.95 -1.99)"/><path class="cls-4" d="M73.07,163.69l5.37-25-5.62-1.38-8,24.19A58.73,58.73,0,0,0,73.07,163.69Z" transform="translate(-8.95 -1.99)"/><path class="cls-1" d="M57.47,158.64,68.31,132.8l3.94,1,4.3,1.16L76,138l-3.14-.77-8,24.2A50.69,50.69,0,0,1,57.47,158.64Z" transform="translate(-8.95 -1.99)"/><path class="cls-10" d="M72.24,133.86l4.41-13.45a21.66,21.66,0,0,0,7.49,1.94,30.75,30.75,0,0,0,7.24-.13l.74,2.88-5.16.35-.28,14.35-3-.38L80.9,164.93l-7.83-1.24,5.37-25L76,138.05l.6-3Z" transform="translate(-8.95 -1.99)"/><path class="cls-7" d="M84.14,122.35l.31-3S72.56,117.13,65.24,111l-8.73,10.65s4.11,4,5.58,4l-1.76,2.72,3.73,1.83L50,154.89a70.78,70.78,0,0,0,7.43,3.75L68.31,132.8l3.94,1,4.4-13.44S81.27,122.22,84.14,122.35Z" transform="translate(-8.95 -1.99)"/><path class="cls-11" d="M43,150.35l14.56-20.24s-.89-.52-2.18-1.43c-.75-.52-1.64-1.21-2.54-1.93L36.6,145.23A66.81,66.81,0,0,0,43,150.35Z" transform="translate(-8.95 -1.99)"/><path class="cls-3" d="M55.37,128.68,56.79,126a14.78,14.78,0,0,0,3.52,2.34L64,130.21,50,154.89,43,150.35l14.56-20.24Z" transform="translate(-8.95 -1.99)"/><path class="cls-2" d="M30.61,139.33l18.68-16.59a15.81,15.81,0,0,1-3.87-4.91L25.34,132.9S28.54,137.13,30.61,139.33Z" transform="translate(-8.95 -1.99)"/><path class="cls-3" d="M14,111.43,37.53,103A30.75,30.75,0,0,1,35.75,98l-24.21,4.72A54.46,54.46,0,0,0,14,111.43Z" transform="translate(-8.95 -1.99)"/><path class="cls-3" d="M9.78,78.41l24.78,2.77s.54-3.25,1.08-5.56L10.92,69.9A80.89,80.89,0,0,0,9.78,78.41Z" transform="translate(-8.95 -1.99)"/><path class="cls-12" d="M15.57,54.27l23.3,11A24.54,24.54,0,0,1,41,59.93l-21.9-13S16.79,51.13,15.57,54.27Z" transform="translate(-8.95 -1.99)"/><path class="cls-13" d="M47.28,120.68l4.6-3.6a46.23,46.23,0,0,0,4.63,4.55l5.58,4-1.76,2.72L56.82,126l-1.45,2.64-2.55-1.93L36.6,145.23l-6-5.95,18.7-16.54Z" transform="translate(-8.95 -1.99)"/><path class="cls-2" d="M41.11,103.59a35.92,35.92,0,0,1-1.21-3.76l-3.37.7,0,.08,1,2.36L14,111.44a55.36,55.36,0,0,0,3,7.42h0L42.65,107.5s-.74-1.65-1.52-3.79Z" transform="translate(-8.95 -1.99)"/><path class="cls-14" d="M112.94,108.47l-2.71-2.59a33.3,33.3,0,0,1-15.38,8.7,31.33,31.33,0,0,1-18.25-1l-1.84,2.9,9.69,2.88-.31,3a33.06,33.06,0,0,0,7.24-.13l.74,2.88a20.53,20.53,0,0,0,4.51-1l1.12,3.09a10.8,10.8,0,0,0,4.3-1.86l.69,3.57a11.47,11.47,0,0,0,3.9-1.51l.9,2.5s3.25-1.07,4.37-2.14l1.36,2.67a9,9,0,0,0,3.15-2l1.54,2.61,2.37-1.9,15.15,21.19a41.13,41.13,0,0,0,6.35-5.21l-31.07-34.1Z" transform="translate(-8.95 -1.99)"/><path class="cls-5" d="M94.89,114.56l-1.1-3S87.1,114.46,77.88,110l-.46-.22A39.44,39.44,0,0,1,65.15,99.73l-44.28,26.4h0a47.64,47.64,0,0,0,4.47,6.76h0l20.09-15a13.66,13.66,0,0,0,1.85,2.83l4.6-3.59.17.2a.21.21,0,0,0,.1.11c.08,0,.13.14.2.22s.13.13.2.22h0a31.12,31.12,0,0,0,3.93,3.77l8.73-10.66.08.06a85.21,85.21,0,0,0,7.37,4.49l.13.07a14.73,14.73,0,0,0,1.88.8l0,0h0l1.89-2.81.13,0,.1,0A50.58,50.58,0,0,0,89,115.42l0,0A17.13,17.13,0,0,0,94.89,114.56Z" transform="translate(-8.95 -1.99)"/><path class="cls-15" d="M79.17,106.79a20.08,20.08,0,0,1-8-5.37,17.18,17.18,0,0,1-3.49-6,10.54,10.54,0,0,1-.43-1.65l-26.15,9.79,0,.07,1.52,3.79L17.05,118.86c.38.84.77,1.66,1.18,2.46.63,1.21,0,.06,0,.08a3.6,3.6,0,0,0,.29.55c.1.18.21.4.31.6s.3.54.43.8.28.51.42.75.16.31.24.45l.27.48c.08.15.23.42.33.58s.14.26.2.35.05.13.07.2l44.33-26.4a39.56,39.56,0,0,0,12.28,10.08c.3.16.46.23.46.23Z" transform="translate(-8.95 -1.99)"/><path class="cls-16" d="M19.83,124.32l.09.24a2.34,2.34,0,0,0-.25-.46A.65.65,0,0,1,19.83,124.32Z" transform="translate(-8.95 -1.99)"/><path class="cls-17" d="M18.23,121.32a26.48,26.48,0,0,1-1.18-2.46h0C17.41,119.64,17.8,120.5,18.23,121.32Z" transform="translate(-8.95 -1.99)"/><path class="cls-17" d="M20.87,126.13a1.46,1.46,0,0,1-.07-.19Z" transform="translate(-8.95 -1.99)"/><path class="cls-18" d="M9.53,86.74l27.27.71s.38-1.85.91-4.15c.27-1.15.58-2.41.89-3.6L35,78.48l-.48,2.68L9.77,78.38A48.63,48.63,0,0,0,9.53,86.74Z" transform="translate(-8.95 -1.99)"/><path class="cls-19" d="M68.66,89.23a2.84,2.84,0,0,1,0-.77l-58.46,6.3,1.28,7.83,0,.08,0,.07h0L35.75,98l.75,2.43,0,.08,3.37-.69,1.21,3.76h0l26.15-9.79c.14.61.29,1.16.43,1.65a16.78,16.78,0,0,0,3.49,6l2.34-1.85L70.88,95l-.07-.19-.08-.23a.67.67,0,0,0-.16-.28l-.22-.37a18,18,0,0,1-1-2.37l-.15-.39a5.73,5.73,0,0,1-.21-.73,4.73,4.73,0,0,1-.11-.48h0A6.11,6.11,0,0,1,68.66,89.23Z" transform="translate(-8.95 -1.99)"/><path class="cls-2" d="M39.72,62.58l3.17,1.21s-1.15,1.74-2.16,3.68a12.32,12.32,0,0,0-1.44,3.93L12.78,62.22c.8-2.69,1.73-5.34,2.79-7.93l23.3,11Z" transform="translate(-8.95 -1.99)"/><path class="cls-20" d="M40.32,21.82l15,21.45a15.89,15.89,0,0,1,5.08-3.2L47.6,16.88A85.4,85.4,0,0,0,40.32,21.82Z" transform="translate(-8.95 -1.99)"/><path class="cls-3" d="M86.92,5.6l-.48,26.65a15.61,15.61,0,0,1,5.89.41L95.54,6A67,67,0,0,0,86.92,5.6Z" transform="translate(-8.95 -1.99)"/><path class="cls-21" d="M111.19,9.13l-8.4,25.67,5.73,2,10.66-24.74A54.73,54.73,0,0,0,111.19,9.13Z" transform="translate(-8.95 -1.99)"/><path class="cls-2" d="M126.49,15.7,112.67,39.35A33.75,33.75,0,0,1,118.13,42l16-21.42A63.09,63.09,0,0,0,126.49,15.7Z" transform="translate(-8.95 -1.99)"/><path class="cls-18" d="M89.39,32.16l-.46,3.67a15.84,15.84,0,0,0-3.8-.65,26.52,26.52,0,0,0-4.18,0l-2.29-29s5.72-.53,8.22-.55l-.44,26.64S86.42,31.68,89.39,32.16Z" transform="translate(-8.95 -1.99)"/><path class="cls-1" d="M85.17,35.17l.23,3.52a32,32,0,0,0-4.27-.07,30.87,30.87,0,0,0-4.4.5L69.86,7.72s5.92-1.34,8.85-1.59L81,35.18A16.7,16.7,0,0,1,85.17,35.17Z" transform="translate(-8.95 -1.99)"/><path class="cls-5" d="M81.13,38.64l.29,3.1A25.6,25.6,0,0,0,70.1,44.25l-2.82-7.83,3.8-1.13-9.6-25a44.32,44.32,0,0,1,8.37-2.51l6.88,31.4S80.49,38.65,81.13,38.64Z" transform="translate(-8.95 -1.99)"/><path class="cls-22" d="M70.71,47.33l1.44,2.61a56,56,0,0,0-5.25,2.69c-2.29,1.33-4.67,3-5.6,4.52L33.73,27.5a81.1,81.1,0,0,1,6.59-5.68l15,21.45a11.38,11.38,0,0,1,2.22-1.7l6.72,9.19A69.92,69.92,0,0,1,70.71,47.33Z" transform="translate(-8.95 -1.99)"/><path class="cls-18" d="M66.86,52.63l1.48,2.42s-6.71,3.6-8.1,7.31L28.16,33.5a77.62,77.62,0,0,1,5.6-6L61.3,57.15A37.94,37.94,0,0,1,66.86,52.63Z" transform="translate(-8.95 -1.99)"/><path class="cls-23" d="M63.63,58.25l1.91,2.21s-3.66,3.23-4.93,6.65L23,40.29a61.57,61.57,0,0,1,5.12-6.79L60.27,62.36A11.28,11.28,0,0,1,63.63,58.25Z" transform="translate(-8.95 -1.99)"/><path class="cls-21" d="M105.61,35.8l-1,2.7a17.87,17.87,0,0,0-7.42-2.43l6.1-29a49.54,49.54,0,0,1,8,2l-8.4,25.67Z" transform="translate(-8.95 -1.99)"/><path class="cls-24" d="M131.38,63.8,100.5,83.49s-7.36-6-12.78-7.62L88.94,73c2.32.25,3.27,1,5.42,1.9l21.46-34.24,2.37,1.29,16-21.42s4.12,3,6.32,5L122.09,45.47a17.2,17.2,0,0,1,2.5,2l-2.54,2.1s1.57,1.63,3.09,3.17l-1.91,1.7C124.3,55.49,130.54,62.55,131.38,63.8Z" transform="translate(-8.95 -1.99)"/><path class="cls-17" d="M37.71,83.3l34.14,1.07S71.4,90.12,74,93.94L70.9,95.05s-2.58-4.14-2.23-6.59l-58.46,6.3a69.45,69.45,0,0,1-.7-8l27.26.71Z" transform="translate(-8.95 -1.99)"/><path class="cls-5" d="M40.73,67.47,73.19,79.4a18.54,18.54,0,0,0-1.31,5L37.71,83.3l.88-3.6L35,78.49l.59-2.92L10.92,69.9s.86-4.54,1.86-7.7l26.51,9.2A17,17,0,0,1,40.73,67.47Z" transform="translate(-8.95 -1.99)"/><path class="cls-6" d="M62.51,63.78,76.19,75a9.52,9.52,0,0,0-3,4.45L40.73,67.47l2.16-3.69-3.17-1.21L41,59.92l-21.89-13s2-3.78,4-6.62L60.61,67.1Z" transform="translate(-8.95 -1.99)"/><path class="cls-24" d="M100.43,36.72,84.63,72.85a34.76,34.76,0,0,1,9.7,2l21.46-34.24-3.09-1.32,13.82-23.64a42.58,42.58,0,0,0-7.32-3.62L108.55,36.81l-2.92-1-1,2.7A12.83,12.83,0,0,0,100.43,36.72Z" transform="translate(-8.95 -1.99)"/><path class="cls-2" d="M74.18,77.23l2.67,1.48s1.34-4.09,7.75-5.86l15.81-36.12a10.53,10.53,0,0,0-3.28-.62l6.09-29s-5-.9-7.66-1.14L92.35,32.62l-2.77-.47-.65,3.64-3.79-.65.24,3.52L81.1,38.6l.29,3.09a25,25,0,0,0-6.16.69l1.08,3s-4.39,1.36-5.64,1.92l1.45,2.61s-4.88,2.46-5.26,2.69L68.34,55s-3.8,2.44-4.71,3.2l1.91,2.2a21.25,21.25,0,0,0-3,3.33L76.19,74.9a18,18,0,0,0-2,2.33l2.67,1.48" transform="translate(-8.95 -1.99)"/><path class="cls-5" d="M153,132.56l-33.09-23.73a45.39,45.39,0,0,0,4-7.29l2.41,1.18-1.84,3.88,33,18.85S154.4,130.55,153,132.56Z" transform="translate(-8.95 -1.99)"/><path class="cls-3" d="M105.09,89.16s12.38-7.71,11.06-18.25c0,0-16.81-19.36-41.36-.8C74.79,70.11,96.74,68.59,105.09,89.16Z" transform="translate(-8.95 -1.99)"/><path class="cls-25" d="M95.48,69.72s15-3.42,19.1-13.07c0,0-5.52-21.62-37-11.94C77.6,44.71,98.2,49.33,95.48,69.72Z" transform="translate(-8.95 -1.99)"/><path class="cls-26" d="M165.79,76.07s-4.85-1.2-5.19-5A11.2,11.2,0,0,1,174.78,66S167.11,68.05,165.79,76.07Z" transform="translate(-8.95 -1.99)"/><path class="cls-12" d="M183.45,114.74l1.1.8c-.7.49-1.48.89-2.18,1.41-25.63,18.36-48.48,1.38-49.52.59l0,0A26.3,26.3,0,0,1,120.48,99c-2.08-14.39,8.38-27.65,23.37-29.59a27.78,27.78,0,0,1,28.3,14.43,22.93,22.93,0,0,1,1.47,3.45s0,0,0,0c4.87,10.13,8.69,13,11.64,15.15C177.41,106.92,183.45,114.74,183.45,114.74Z" transform="translate(-8.95 -1.99)"/><ellipse class="cls-25" cx="185.96" cy="108.78" rx="6.44" ry="5.03" transform="matrix(0.04, -1, 1, 0.04, 60.3, 287.88)"/><path class="cls-22" d="M153.44,40.1c-.55-.76-1.17-1.57-1.84-2.41h0L127.84,55.28l-.44-.42-.15-.15-.41-.4-.63-.62L125.5,53l-.43-.43-1.91,1.68h0a.23.23,0,0,0,.14.13c.1,0,.14.14.23.24l.47.5a29.35,29.35,0,0,1,2,2.48A35.83,35.83,0,0,1,128,60.84l16.28-9.13a85.38,85.38,0,0,1,5.89-8.35,24.51,24.51,0,0,1,3.1-3.26Z" transform="translate(-8.95 -1.99)"/><path class="cls-16" d="M137.72,83.62s-3.55.45-1.64-4.54" transform="translate(-8.95 -1.99)"/><path class="cls-17" d="M77.43,109.84A39.56,39.56,0,0,1,65.15,99.76C68.7,105.31,75.62,109,77.43,109.84Z" transform="translate(-8.95 -1.99)"/><path class="cls-20" d="M54.61,13.08l10,24.53A26.69,26.69,0,0,1,71,35.28l-9.6-25S57.34,11.74,54.61,13.08Z" transform="translate(-8.95 -1.99)"/><path class="cls-11" d="M140.42,25.57,122,45.5a42.44,42.44,0,0,1,4.76,4l19.39-18.34A71,71,0,0,0,140.42,25.57Z" transform="translate(-8.95 -1.99)"/><path class="cls-27" d="M57.53,41.52l6.72,9.2a52.25,52.25,0,0,1,6.46-3.39,31.15,31.15,0,0,1,5.63-1.92l-1.09-3S72,43.5,70.08,44.19l-2.82-7.82-2.68,1.2-10-24.49s-4.55,2.2-7.06,3.78L60.37,40.05A13.91,13.91,0,0,0,57.53,41.52Z" transform="translate(-8.95 -1.99)"/><path class="cls-9" d="M124.54,47.48l-2.49,2.08s1.54,1.59,3.09,3.17c1.11,1.15,2.22,2.27,2.79,2.81l23.66-17.82s-3.11-4.1-5.43-6.52l-19.4,18.34Z" transform="translate(-8.95 -1.99)"/><path class="cls-28" d="M118.23,38.63s17.23,6.07,27.51-.63c0,0,7.76-23.5-29.25-34.38C116.49,3.62,134.08,20.83,118.23,38.63Z" transform="translate(-8.95 -1.99)"/><path class="cls-16" d="M138.36,98.92s8.11,2.58,12.83-2.06" transform="translate(-8.95 -1.99)"/><path class="cls-5" d="M131.19,47.76S141.19,58,151,53.92c0,0,16.47-20.42-7.93-41.24C143.1,12.68,153.5,38.5,131.19,47.76Z" transform="translate(-8.95 -1.99)"/><path class="cls-3" d="M162.64,72.41s-5.44,1.08-6.14-3.84c0,0,4-14.06,15.16-14.82A28.84,28.84,0,0,0,162.64,72.41Z" transform="translate(-8.95 -1.99)"/><path class="cls-21" d="M140.24,56.17s5.28,9.46,13.6,6.11c0,0,16.15-19,3.12-37.07C157,25.21,156.82,44.49,140.24,56.17Z" transform="translate(-8.95 -1.99)"/><path class="cls-23" d="M144.81,62.33s2.36,9.07,10.26,7.15c0,0,18.2-14.79,11.17-32.49C166.24,37,161.71,54.07,144.81,62.33Z" transform="translate(-8.95 -1.99)"/><path class="cls-18" d="M161.07,74.25s-5.51-.6-4.7-5.5c0,0,8-12.22,18.91-9.59A28.86,28.86,0,0,0,161.07,74.25Z" transform="translate(-8.95 -1.99)"/><path class="cls-3" d="M144.6,71.22s4.93,6,10,1.27c0,0,8.08-18.78-3.32-29.45C151.31,43,154,58,144.6,71.22Z" transform="translate(-8.95 -1.99)"/><path class="cls-7" d="M158.59,77.7s2.26,3.27,6.55.94c0,0,3.21-6.25,6.81-8.19C172,70.45,165.92,67.65,158.59,77.7Z" transform="translate(-8.95 -1.99)"/><path class="cls-13" d="M150.74,77.64s7,5.47,9.19-.29c0,0,0-5.41,6.23-8.67C166.16,68.68,157.61,66,150.74,77.64Z" transform="translate(-8.95 -1.99)"/><path class="cls-29" d="M110.23,44.87s16.13,2.05,21.27-9.35c0,0-1-32-37.84-33C93.66,2.53,119.5,19.5,110.23,44.87Z" transform="translate(-8.95 -1.99)"/><path class="cls-1" d="M114.37,51.8s9.76,10.92,20,7.1c0,0,16.34-21.78-6.25-42.65C128.11,16.25,133.35,38.43,114.37,51.8Z" transform="translate(-8.95 -1.99)"/><path class="cls-3" d="M107.76,60.14S123.39,57.32,126.13,46c0,0-9.68-26.67-41.95-17.72C84.18,28.27,107.19,35.69,107.76,60.14Z" transform="translate(-8.95 -1.99)"/><path class="cls-7" d="M118.14,70.31s12.81,1.09,16.56-8c0,0-3.95-25.07-30.81-24.64C103.89,37.65,121.11,49.19,118.14,70.31Z" transform="translate(-8.95 -1.99)"/><path class="cls-30" d="M118.06,75s12.6-.6,15.87-9.28c0,0-5-22.15-31.31-18.44C102.62,47.27,120,55.56,118.06,75Z" transform="translate(-8.95 -1.99)"/><path class="cls-20" d="M130.07,70.64s11.18,6.89,18.41-.71c0,0,6.94-27.37-17.65-39.06C130.83,30.87,141.64,50.42,130.07,70.64Z" transform="translate(-8.95 -1.99)"/><path class="cls-13" d="M118.07,84.65s12.51-3.58,10.63-14.29c0,0-18.41-24.25-43.06-14C85.64,56.41,108.4,61.91,118.07,84.65Z" transform="translate(-8.95 -1.99)"/><path class="cls-22" d="M137,78.29s4.76,6.12,10,1.57c0,0,8.63-18.53-2.46-29.54C144.52,50.32,146.81,65.33,137,78.29Z" transform="translate(-8.95 -1.99)"/><path class="cls-3" d="M128.28,82s9,1.62,11.32-5.49c0,0-3.47-20.4-22.2-21.6C117.4,54.9,129.75,65.18,128.28,82Z" transform="translate(-8.95 -1.99)"/><path class="cls-3" d="M154,79.28s-5.44,1.08-6.14-3.83c0,0,4-14.07,15.16-14.82A28.8,28.8,0,0,0,154,79.28Z" transform="translate(-8.95 -1.99)"/><path class="cls-9" d="M145.5,81.23s-5.69,2.73-8.3-2c0,0-.73-15.27,11.48-19.41C148.68,59.85,142,69.4,145.5,81.23Z" transform="translate(-8.95 -1.99)"/><path class="cls-5" d="M145.39,81s3.29,3.23,7.11.67c0,0,1.6-6.5,4.81-8.64C157.31,73,150.23,70.4,145.39,81Z" transform="translate(-8.95 -1.99)"/><path class="cls-13" d="M132.73,83s3.08,3.32,7.45.18c0,0,2.51-7.36,6.18-10C146.36,73.14,139.19,70.84,132.73,83Z" transform="translate(-8.95 -1.99)"/><path class="cls-5" d="M107.3,83.42s7.42-2.17,7.24-8.23c0,0-8.47-13.54-23.37-7.41C91.17,67.78,103.68,70.64,107.3,83.42Z" transform="translate(-8.95 -1.99)"/><path class="cls-31" d="M107.65,92.9s6.51-4.19,4.62-10c0,0-12-10.59-24.52-.48C87.75,82.47,100.56,81.66,107.65,92.9Z" transform="translate(-8.95 -1.99)"/><path class="cls-31" d="M113.12,89.18s7.12-3,6.24-9c0,0-10-12.48-24.07-4.66C95.29,75.51,108,76.9,113.12,89.18Z" transform="translate(-8.95 -1.99)"/><path class="cls-22" d="M120,86.25s7.93-1.46,8.79-7.54c0,0-6.3-14.4-22.52-9.71C106.23,69,118.47,73.08,120,86.25Z" transform="translate(-8.95 -1.99)"/><path class="cls-13" d="M114.43,102s6.89-4.18,5.59-10.15c0,0-10.84-11.18-24.34-1C95.68,90.79,108.5,90.25,114.43,102Z" transform="translate(-8.95 -1.99)"/><path class="cls-3" d="M124.15,84.68s4.7,2.83,8.26-.65c0,0-.17-7.3,2.81-10.21C135.22,73.82,126.42,72.41,124.15,84.68Z" transform="translate(-8.95 -1.99)"/><path class="cls-13" d="M121.66,90.82s3.49,1.59,5.87-2.23c0,0-.46-6.49,1.54-9.69C129.07,78.9,122.72,79.4,121.66,90.82Z" transform="translate(-8.95 -1.99)"/><path class="cls-3" d="M114,104.22s4.06-3.78.49-7.22c0,0-13.75-5-20.9,3.6A28.87,28.87,0,0,1,114,104.22Z" transform="translate(-8.95 -1.99)"/><path class="cls-9" d="M117.37,94.11s5.93-3.22,4.48-8.38c0,0-10.21-10.06-21.73-2.09C100.12,83.64,111.51,83.81,117.37,94.11Z" transform="translate(-8.95 -1.99)"/><path class="cls-22" d="M127.5,92.5s-2.83,3.3-6.2.94c0,0-1.71-5.71-4.54-7.69C116.76,85.75,127.5,87.5,127.5,92.5Z" transform="translate(-8.95 -1.99)"/><path class="cls-31" d="M126.06,95.63s-.78,5.37-7,5.34c0,0-7.15-5.41-12.36-5.42C106.71,95.55,112.06,88.34,126.06,95.63Z" transform="translate(-8.95 -1.99)"/><path class="cls-30" d="M124.81,100.69s3.69,3.81-1.31,7.81c0,0-14.6-2.42-20.45-.43C103.05,108.07,106.3,97.79,124.81,100.69Z" transform="translate(-8.95 -1.99)"/><path class="cls-13" d="M125.79,99.67a4.56,4.56,0,0,1-4,4.45s-6.89-2.23-10.29-1.62C111.5,102.5,115.86,96.38,125.79,99.67Z" transform="translate(-8.95 -1.99)"/></svg>