<svg id="Layer_1" data-name="Layer 1" xmlns="http://www.w3.org/2000/svg" viewBox="0 0 198.04 189.66"><defs><style>.cls-1{fill:none;}.cls-1,.cls-10,.cls-11,.cls-12,.cls-13,.cls-14,.cls-15,.cls-16,.cls-17,.cls-18,.cls-19,.cls-2,.cls-20,.cls-21,.cls-22,.cls-23,.cls-24,.cls-25,.cls-26,.cls-27,.cls-3,.cls-4,.cls-5,.cls-6,.cls-7,.cls-8,.cls-9{stroke:#1d1d1b;stroke-miterlimit:10;}.cls-2{fill:#77748b;}.cls-3{fill:#74625e;}.cls-4{fill:#c69d97;}.cls-5{fill:#82534e;}.cls-6{fill:#924242;}.cls-7{fill:#906964;}.cls-8{fill:#917774;}.cls-9{fill:#c4c0d1;}.cls-10{fill:#6e6c78;}.cls-11{fill:#6f6d92;}.cls-12{fill:#a7a3bb;}.cls-13{fill:#bec1e0;}.cls-14{fill:#7c7f8e;}.cls-15{fill:#f7c5ba;}.cls-16{fill:#de7a7a;}.cls-17{fill:#cfada7;}.cls-18{fill:#f9d0d0;}.cls-19{fill:#a5635e;}.cls-20{fill:#e1dfe8;}.cls-21{fill:#595a5e;}.cls-22{fill:#b98781;}.cls-23{fill:#fbe3dd;}.cls-24{fill:#c0b8dc;}.cls-25{fill:#8b87a6;}.cls-26{fill:#929ac9;}.cls-27{fill:#504a48;}</style></defs><g id="Layer_2" data-name="Layer 2"><g id="Layer_1-2" data-name="Layer 1-2"><path class="cls-1" d="M11.32,80.59c0-.35.1-.68.16-1s.06-.41.09-.6v.3A7.63,7.63,0,0,0,11.32,80.59Zm179.59,36.09a102.68,102.68,0,0,1-10-7.09c-4.83-3.78-9.58-7.9-13-11a27,27,0,0,1-7.35-7.15,25.35,25.35,0,0,1-4.67-17.64l3.29-.89L157,68.62l-2.3-4.39L167.94,56a16.15,16.15,0,0,1-6-5c-.11-.13-.21-.27-.31-.41a16.55,16.55,0,0,1-2.2-4.18,5.89,5.89,0,0,1-.21-.59,11.9,11.9,0,0,1-.56-2.7h0c-.21-2.31.4-4.28,1.86-5.39a1.3,1.3,0,0,1,.31-.26,4.85,4.85,0,0,1,2.43-.72h.11a1.8,1.8,0,0,1,.1-.46v-.14a2.31,2.31,0,0,1,.1-.28,4,4,0,0,1,.37-.82c.07-.12.14-.24.22-.35s-.08-.26-.12-.39c-.87-3-.4-5.79,1.42-7.08a1.18,1.18,0,0,1,.28-.22,4.27,4.27,0,0,1,2.18-.56h.18a3.47,3.47,0,0,1,.55-.6h0c-.74-.69-1.49-1.35-2.25-2-.41-.38-.75-.68-1-.88h0l-1-1c-1.26-1.07-2.57-2.06-3.89-3-.61-.46-1.2-.9-1.74-1.29l-.43-.31-.76-.52-.08-.05-.17-.11-.92-.59c-1.54-1-3.12-2-4.71-2.91-.49-.3-1-.57-1.37-.81l-.4-.22-.47-.26h-.09c-2-1.1-4.09-2.1-6.2-3L141.32,8l-.54-.23-.53-.22a96.34,96.34,0,0,0-9.2-3.22h0a92.88,92.88,0,0,0-10-2.32s-1.3-.22-3-.47L117,1.39c-1-.14-2.11-.27-3.15-.38-.53,0-1-.1-1.52-.13h-10.1l-.49-.31h-.2c-2.47.07-4.9.25-7.3.52l-.66.06-.59.07-.5.06A92.16,92.16,0,0,0,82,3.23h-.24l-1.1.34c-2.79.74-5.52,1.59-8.21,2.56h0l-.64.23-1.39.53c-.71.28-1.46.59-2.18.9s-1.42.61-2,.88c-.2.08-.39.17-.59.27l-2,.88a91,91,0,0,0-8.23,4.5h0A96.86,96.86,0,0,0,47.19,20l-.17.14h0Q43.33,23,39.94,26.19q-3.21,3-6.13,6.32c-.45.51-.7.81-.7.81a97.21,97.21,0,0,0-6,7.72h0a.36.36,0,0,0-.07.1A87.57,87.57,0,0,0,22,49.35a1.35,1.35,0,0,0-.15.26h0a94,94,0,0,0-4.2,8.7l-.78,1.91c-.21.54-.42,1.11-.63,1.68-.67,1.69-1.26,3.39-1.79,5.1-.11.36-.18.57-.18.57A92.34,92.34,0,0,0,12,76.85L72.41,88.41a46.41,46.41,0,0,1,9.71-16.1c.27-.29.42-.43.42-.43L85.31,75a23.66,23.66,0,0,0-6.8,9.15,19.77,19.77,0,0,0-1.51,8,11.19,11.19,0,0,0,.18,2l-33.35-.39v-.09L44,88.85,10.61,86.47c-.26,2.76-.38,5.53-.38,8.38v1.08a96.62,96.62,0,0,0,.71,10.62v.19a92.13,92.13,0,0,0,3,14.13c.17.65.37,1.34.58,2s.47,1.47.72,2.2h0a94.21,94.21,0,0,0,3.59,9l0,.1c.71,1.54,1.45,3.05,2.24,4.53.18.34.36.68.55,1v.08l.35.63c.35.64.67,1.2.93,1.65l.24.4a1,1,0,0,0,.1.17c.08.15.17.29.26.44h0l.18.33c.13.2.31.5.53.86l.29.47.69,1.08c1.12,1.73,2.29,3.4,3.51,5.05h0c.06.08.38.51.88,1.15.11.14.22.3.35.46.25.33.53.69.84,1.07s.61.76.92,1.13a.16.16,0,0,0,.06.08c1.07,1.28,2.16,2.54,3.3,3.76A86.68,86.68,0,0,0,42,165.29l.16.16.33.29.44.38,1.2,1,.35.29.37.31c.47.39.95.77,1.43,1.15s1.2.93,1.8,1.38c.36.28.72.54,1.07.79h0a94.13,94.13,0,0,0,8.58,5.66h0a94.32,94.32,0,0,0,111-12.7,88.44,88.44,0,0,0,6.76-6.93,92.35,92.35,0,0,0,6.6-8.4v-.06l.11-.16.08-.12c.06-.09.13-.19.2-.31l.13-.18q1.55-2.24,2.93-4.58c.31-.51.61-1,.89-1.5s.46-.8.67-1.2c1.2-2.13,2.3-4.32,3.33-6.55.06-.12.12-.25.17-.38s.11-.25.17-.38c.18-.4.36-.81.53-1.22h0l.21-.49.87-2.13c.46-1.17.89-2.38,1.26-3.44.13-.34.25-.67.35-1a4.35,4.35,0,0,0,.2-.61c.32-1,.53-1.6.56-1.71h0c.36-1.17.69-2.34,1-3.53A28.88,28.88,0,0,1,190.91,116.68ZM168.42,67.37a14,14,0,0,1-1.49-1.93l-6.05,3,1.32,2.85,1.49,3.16,10-3.63A12,12,0,0,1,168.42,67.37Z" transform="translate(-9.69 -0.03)"/><path class="cls-2" d="M195.8,119.26c-.3,1.06-.67,2.21-1.09,3.41h0l-33.83-10-.32.64a1.51,1.51,0,0,1-.11.22c-.09.18-.18.38-.3.61s-.29.59-.46.94l-.5,1.07-.31.65-2.83-1.1h0a.29.29,0,0,1,.1-.2c.1-.09.1-.21.17-.36s.2-.44.32-.74a32.11,32.11,0,0,0,1.21-3.54,41.91,41.91,0,0,0,1-4.44l22,3.61a103.92,103.92,0,0,0,10,6.91,29,29,0,0,0,4.81,2.37Z" transform="translate(-9.69 -0.03)"/><path class="cls-3" d="M168.42,67.37a14,14,0,0,1-1.49-1.93l-6.05,3,1.32,2.85,1.49,3.16,10-3.63A12,12,0,0,1,168.42,67.37Z" transform="translate(-9.69 -0.03)"/><path class="cls-4" d="M198.49,77.59c0-.2-.08-.4-.14-.6a25.89,25.89,0,0,0-2.22-5.62c-.18-.34-.37-.68-.58-1s-.23-.4-.36-.6a5.21,5.21,0,0,1-.93,2.3,8.56,8.56,0,0,1,1,1.83c1.1,2.74.75,5.46-.75,6.2a10.17,10.17,0,0,1,.75,1.47c1.13,2.81.73,5.62-.89,6.28s-3.87-1.1-5-3.91a8.29,8.29,0,0,1-.57-2.2c-1.43.27-3.08-.54-4.48-2.06a11.51,11.51,0,0,1-2.48-3.86,12.85,12.85,0,0,1-.62-2,9.48,9.48,0,0,1-3.33-3.21,4.62,4.62,0,0,1-4.25.47l-10,3.63-1.45-3.11c-1.95.71-4.22,2.38-6.32,2.5a25.35,25.35,0,0,0,4.67,17.64,27,27,0,0,0,7.35,7.15c3.44,3.06,8.19,7.18,13,11a102.68,102.68,0,0,0,10,7.09,28.59,28.59,0,0,0,4.81,2.44h.09a9.23,9.23,0,0,0,1.45.42,4.11,4.11,0,0,0,1.78.06c7.3-1.64,8.17-5.71,8.17-5.71S208.37,105.56,198.49,77.59Zm-2,38.73h0a.17.17,0,0,0-.07-.14,2.88,2.88,0,0,1-.2-1.12l.42.11h.08l5,1.37c-3.44,1.71-4.72.77-5.18-.22Z" transform="translate(-9.69 -0.03)"/><path class="cls-1" d="M172.25,88.43s6,3.83,10.81,1.1" transform="translate(-9.69 -0.03)"/><path class="cls-1" d="M160.5,77.27s-4.17.93,0,5.7" transform="translate(-9.69 -0.03)"/><path class="cls-5" d="M191.69,77.36v.19a2,2,0,0,0-1.14.09l-.16.1c-1,.52-1.5,2-1.33,3.69h-.21c-1.43.28-3.08-.52-4.49-2,1.42,1.42,3,2.11,4.45,1.74-.17-1.73.3-3.17,1.33-3.69a.51.51,0,0,1,.16-.09,1.93,1.93,0,0,1,1.14-.1,10.88,10.88,0,0,0-.66-4.73c-.06-.18-.13-.35-.2-.53a14.58,14.58,0,0,0-1-1.87,10.73,10.73,0,0,0-1.18-1.59,9.56,9.56,0,0,1,1.29,1.55c.07.1.14.2.2.3a12,12,0,0,1,1,1.87c.07.18.14.35.2.53A10.94,10.94,0,0,1,191.69,77.36Z" transform="translate(-9.69 -0.03)"/><path class="cls-6" d="M189.69,70.13h-.05a10.67,10.67,0,0,0-1.17-1.59A9.87,9.87,0,0,1,189.69,70.13Z" transform="translate(-9.69 -0.03)"/><path class="cls-7" d="M201.77,116.56c-3.49,1.69-4.77.75-5.23-.24h0a.17.17,0,0,0-.07-.14,2.88,2.88,0,0,1-.2-1.12l.42.11h.08Z" transform="translate(-9.69 -0.03)"/><path class="cls-8" d="M183,51.93a2.73,2.73,0,0,0-.71.34A3.69,3.69,0,0,0,180.9,54c0,.1-.07.2-.1.3l-.12-.07.09-.24a3.71,3.71,0,0,1,1.37-1.73A2.39,2.39,0,0,1,183,51.93Z" transform="translate(-9.69 -0.03)"/><path class="cls-1" d="M173.69,70.82l-10,3.63-1.45-3.11-1.32-2.85,6.05-3a14,14,0,0,0,1.49,1.93A12,12,0,0,0,173.69,70.82Z" transform="translate(-9.69 -0.03)"/><path class="cls-2" d="M177.74,50.83c-.23-.17-.46-.32-.69-.46a6.38,6.38,0,0,0-.74-.37l-.24-.11L176,49.8l.29.14a7.35,7.35,0,0,1,1.44.89Z" transform="translate(-9.69 -0.03)"/><path class="cls-6" d="M171.39,57.06h-.09l-.43-.15a4.77,4.77,0,0,0-.51-.13h-.1a4.5,4.5,0,0,0-.64-.11c-.21,0-.43,0-.64,0a3.74,3.74,0,0,0-2.58.92c-1.46,1.35-1.48,3.89-.28,6.48a9.88,9.88,0,0,0,.81,1.46l-6.05,3,1.32,2.85-2.86,1.56-.15.08h0L157,68.73l-2.31-4.5L167.94,56a8.69,8.69,0,0,0,3.35.86Z" transform="translate(-9.69 -0.03)"/><path class="cls-2" d="M177.74,50.83c-.23-.17-.46-.32-.69-.46a6.38,6.38,0,0,0-.74-.37l-.24-.11L176,49.8l.29.14a7.35,7.35,0,0,1,1.44.89Z" transform="translate(-9.69 -0.03)"/><path class="cls-2" d="M183,51.93a2.73,2.73,0,0,0-.71.34A3.69,3.69,0,0,0,180.9,54c0,.1-.07.2-.1.3l-.12-.07.09-.24a3.71,3.71,0,0,1,1.37-1.73A2.39,2.39,0,0,1,183,51.93Z" transform="translate(-9.69 -0.03)"/><path class="cls-9" d="M154.69,64.23,157,68.66l-2.27,1.13c-1-1.68-2-3.35-3-4.77l-.35-.53c-.59-.91-1.13-1.69-1.55-2.29l-.37-.54-.19-.27-.3-.43,13-10a16.15,16.15,0,0,0,6,5Z" transform="translate(-9.69 -0.03)"/><path class="cls-10" d="M151.4,64.49l.35.53L149,66.8c-1-1.42-2.14-3-3.2-4.33l-.09-.11c-1.2-1.54-2.27-2.85-2.82-3.5l-.37-.45,16.18-15.36a11.9,11.9,0,0,0,.56,2.7,5.89,5.89,0,0,0,.21.59,16.55,16.55,0,0,0,2.2,4.18c.1.14.2.28.31.41l-13,10,.3.43.19.27.37.54Z" transform="translate(-9.69 -0.03)"/><path class="cls-11" d="M168.69,25.78a3.47,3.47,0,0,0-.55.6H168a4.27,4.27,0,0,0-2.18.56,1.18,1.18,0,0,0-.28.22c-1.82,1.29-2.29,4-1.42,7.08a1.17,1.17,0,0,0,.12.39A1.86,1.86,0,0,0,164,35a4,4,0,0,0-.37.82,2.31,2.31,0,0,0-.1.28v.14a2.36,2.36,0,0,0-.1.46h-.11a4.85,4.85,0,0,0-2.43.72,1.3,1.3,0,0,0-.31.26c-1.46,1.11-2.07,3.08-1.86,5.39h0L142.51,58.41l.37.45,2.82,3.5-2.64,1.87A37.27,37.27,0,0,0,140,60.77c-1.49-1.54-2.94-2.88-3.46-3.36l-.2-.19L165.5,22.85c.24.2.58.5,1,.88C167.12,24.3,167.9,25,168.69,25.78Z" transform="translate(-9.69 -0.03)"/><path class="cls-12" d="M157.57,16.82,130.35,56.61a53.14,53.14,0,0,1,7.45,6.44L140,60.76l-3.67-3.54L165.5,22.85S160,18.44,157.57,16.82Z" transform="translate(-9.69 -0.03)"/><path class="cls-3" d="M149.45,11.87,124.91,56.61s5.1,3.68,7,5.52l2.2-2.56-3.79-3,27.22-39.79S151.76,13.08,149.45,11.87Z" transform="translate(-9.69 -0.03)"/><path class="cls-13" d="M140.25,7.51,119.13,57.78a53,53,0,0,1,7.28,4.35l1.92-3-3.42-2.55,24.54-44.74S142.85,8.53,140.25,7.51Z" transform="translate(-9.69 -0.03)"/><path class="cls-14" d="M131,4.28l-8.44,29.56s-3.93-1.84-6.87-1.42L121,2A56.71,56.71,0,0,1,131,4.28Z" transform="translate(-9.69 -0.03)"/><path class="cls-6" d="M111.51.77l-2.42,34.05s7,.19,9.37,1.37l.67-3.51-3.44-.26L121,2S115.1,1,111.51.77Z" transform="translate(-9.69 -0.03)"/><path class="cls-15" d="M101.69.56l.78,37.62s9.77-.45,11.2.53l.45-3.51-5-.38,2.42-34A92.49,92.49,0,0,0,101.69.56Z" transform="translate(-9.69 -0.03)"/><path class="cls-8" d="M92.44,1.29l4.85,40.32s8.14-1,10.58-.38V38.08l-5.43.1L101.69.56S94.87,1,92.44,1.29Z" transform="translate(-9.69 -0.03)"/><path class="cls-16" d="M82,3.22,92.77,45.36s7.44-.81,10.76,0l-.68-4.24-5.56.49L92.44,1.29A55.72,55.72,0,0,0,82,3.22Z" transform="translate(-9.69 -0.03)"/><path class="cls-11" d="M72.42,6.14l11.2,28.32c-1-.18-5.75,1.88-6.46,2.54L63.69,9.82S69.13,7.26,72.42,6.14Z" transform="translate(-9.69 -0.03)"/><path class="cls-8" d="M80.37,35.38,86.5,51.21A36.41,36.41,0,0,1,97.94,48.9V45l-5.17.34L82,3.22a80.75,80.75,0,0,0-9.62,2.92l11.2,28.32Z" transform="translate(-9.69 -0.03)"/><path class="cls-13" d="M55.39,14.33,71.57,39.94l-5.76,3.78L47,20.09A68.62,68.62,0,0,1,55.39,14.33Z" transform="translate(-9.69 -0.03)"/><path class="cls-3" d="M39.9,26.17,62.56,50.5l4-2.75,4.37-3L69,41.62l-3.21,2.11L47,20.09A59.83,59.83,0,0,0,39.9,26.17Z" transform="translate(-9.69 -0.03)"/><path class="cls-12" d="M66.55,47.75,77,60.9a26,26,0,0,1,7.64-5.15A37.41,37.41,0,0,1,92.78,53l-.34-3.49L86.5,51.18l-6.13-15.8L77.16,37,63.69,9.82l-8.3,4.51L71.57,39.94,69,41.61l1.9,3.13Z" transform="translate(-9.69 -0.03)"/><path class="cls-17" d="M84.59,55.75,86.17,59S73.69,66.18,68,75.93L53.83,67.6s3-6.06,4.63-6.7l-3.07-2.31,3.44-3.52L33.07,33.3a85.19,85.19,0,0,1,6.83-7.13L62.56,50.5l4-2.75L77,60.9S81.42,57.05,84.59,55.75Z" transform="translate(-9.69 -0.03)"/><path class="cls-18" d="M27,41.16,51.55,57.79s-.79.93-1.87,2.45c-.63.88-1.35,2-2.08,3.16l-25.71-14A80,80,0,0,1,27,41.16Z" transform="translate(-9.69 -0.03)"/><path class="cls-16" d="M49.69,60.24l2.67,2.36a17.24,17.24,0,0,1,3-4l3.44-3.52L33.07,33.3,27,41.16,51.55,57.79Z" transform="translate(-9.69 -0.03)"/><path class="cls-6" d="M17.55,58.34,45.26,69.26a18.32,18.32,0,0,0-2.35,7L14.23,67.58S16.11,61.6,17.55,58.34Z" transform="translate(-9.69 -0.03)"/><path class="cls-16" d="M10.23,95.92H40.07a35.32,35.32,0,0,0,0,6.17L11,106.54A62.92,62.92,0,0,1,10.23,95.92Z" transform="translate(-9.69 -0.03)"/><path class="cls-16" d="M18.83,134.25l26.73-13s1.92,3.4,3.46,5.74L23.57,143.23A96.16,96.16,0,0,1,18.83,134.25Z" transform="translate(-9.69 -0.03)"/><path class="cls-15" d="M35.12,158.7l21.74-21.49a28.9,28.9,0,0,0,4.5,5.06L42,165.47S37.77,161.7,35.12,158.7Z" transform="translate(-9.69 -0.03)"/><path class="cls-19" d="M43.84,72.35l6.63,2.15a55,55,0,0,1,3.36-6.9l4.63-6.7-3.07-2.31-3,4-2.7-2.35L47.6,63.4l-25.71-14-4.34,9L45.26,69.26Z" transform="translate(-9.69 -0.03)"/><path class="cls-6" d="M43.83,93.78A43.06,43.06,0,0,0,44,98.43L39.93,99v-.1l.14-3H10.23a64.56,64.56,0,0,1,.36-9.43h0L44,88.82s-.16,2.13-.17,4.82Z" transform="translate(-9.69 -0.03)"/><path class="cls-20" d="M122.58,59.63l-2,3.95a40.26,40.26,0,0,0-20.81-3.49,37.63,37.63,0,0,0-20.08,8.46l-3.25-2.48L86.17,59l-1.58-3.25A40.05,40.05,0,0,1,92.78,53l-.34-3.49a24.82,24.82,0,0,1,5.5-.64V45a13,13,0,0,1,5.59.34l-.68-4.24a14.24,14.24,0,0,1,5,.11V38.08s4.08-.11,5.77.63l.45-3.51a11,11,0,0,1,4.37,1l.67-3.51,3.43,1.16L131,4.29a49.72,49.72,0,0,1,9.25,3.23l-21.1,50.26Z" transform="translate(-9.69 -0.03)"/><path class="cls-17" d="M99.82,60.09v3.82s-8.71-.59-17.28,8c0,0-.15.14-.42.43a46.41,46.41,0,0,0-9.71,16.1L12,76.87h0a55.91,55.91,0,0,1,2.29-9.28h0l28.67,8.65a16.64,16.64,0,0,1,.93-3.88l6.63,2.14.11-.28a.25.25,0,0,1,.07-.17c.07-.06.09-.2.13-.32s.09-.2.14-.32h0a36.49,36.49,0,0,1,2.89-5.76L67.94,76l.06-.09A100.32,100.32,0,0,1,74.47,68l.12-.13a14.63,14.63,0,0,1,1.79-1.64h.05l3.26,2.36.13-.1.1-.07A60.24,60.24,0,0,1,92.84,61.5h.06A20.78,20.78,0,0,1,99.82,60.09Z" transform="translate(-9.69 -0.03)"/><path class="cls-21" d="M85.31,75a23.66,23.66,0,0,0-6.8,9.15,19.77,19.77,0,0,0-1.51,8,11.19,11.19,0,0,0,.18,2l-33.35-.39v-.09L44,88.85,10.61,86.47q.12-1.62.33-3.21c.21-1.59,0-.07,0-.1a4.45,4.45,0,0,1,.1-.72c0-.24.07-.53.11-.79l.16-1.06c0-.34.1-.68.16-1s.06-.41.09-.6.08-.44.11-.64.09-.55.13-.77.06-.35.09-.47a1,1,0,0,1,0-.25L72.41,88.41a46.41,46.41,0,0,1,9.71-16.1c.27-.29.42-.43.42-.43Z" transform="translate(-9.69 -0.03)"/><path class="cls-1" d="M11.52,79.3V79a2.18,2.18,0,0,1-.09.6A.69.69,0,0,0,11.52,79.3Z" transform="translate(-9.69 -0.03)"/><path class="cls-17" d="M10.94,83.26a28.61,28.61,0,0,0-.33,3.21h0C10.69,85.46,10.79,84.35,10.94,83.26Z" transform="translate(-9.69 -0.03)"/><path class="cls-17" d="M12,76.87a1,1,0,0,0,0,.25Z" transform="translate(-9.69 -0.03)"/><path class="cls-17" d="M82.12,72.31a46.41,46.41,0,0,0-9.71,16.1C74.14,80.83,80.43,74,82.12,72.31Z" transform="translate(-9.69 -0.03)"/><path class="cls-8" d="M15.18,125.1l30.35-11.69s1.18,1.9,2.71,4.23c.77,1.17,1.63,2.45,2.46,3.64l-3.52,2.78-1.62-2.78-26.73,13A57.17,57.17,0,0,1,15.18,125.1Z" transform="translate(-9.69 -0.03)"/><path class="cls-7" d="M80.61,98.68a3.73,3.73,0,0,0,.33.86l-68.25,16.4L11,106.74v-.19h0l29.12-4.45-.14-3V99L44,98.42l-.17-4.65h0l33.35.39c-.08-.73-.14-1.4-.18-2a19.77,19.77,0,0,1,1.51-8l3.38,1.12-1.12,6.1v.53a.79.79,0,0,1-.07.38l-.09.49a20.77,20.77,0,0,0-.23,3v.49a5.24,5.24,0,0,0,.06.9c.06.3,0,.4.07.58h0A6.4,6.4,0,0,0,80.61,98.68Z" transform="translate(-9.69 -0.03)"/><path class="cls-6" d="M58.9,139.82,62,137.21s-2-1.47-3.92-3.22a14.21,14.21,0,0,1-3.21-3.78L28.77,151a95.11,95.11,0,0,0,6.35,7.68l21.74-21.49Z" transform="translate(-9.69 -0.03)"/><path class="cls-22" d="M76.09,184.8,84.27,155a19.16,19.16,0,0,0,7,1.51l-5,30.85A101.7,101.7,0,0,1,76.09,184.8Z" transform="translate(-9.69 -0.03)"/><path class="cls-22" d="M95.69,188.77l1.24-31.19a32.39,32.39,0,0,0,8.23,0l-.65,31.59S99.31,189.17,95.69,188.77Z" transform="translate(-9.69 -0.03)"/><path class="cls-6" d="M135,184.14l-11.34-29.37a18.59,18.59,0,0,0,6.45-2.81l14.43,28.31A78.06,78.06,0,0,1,135,184.14Z" transform="translate(-9.69 -0.03)"/><path class="cls-10" d="M160.88,170.52,141,145.4l5.63-4.53,22,23.18A64.18,64.18,0,0,1,160.88,170.52Z" transform="translate(-9.69 -0.03)"/><path class="cls-6" d="M175.41,157.11l-25.12-20.7a40.63,40.63,0,0,0,5.08-5.08L182,148.7A75.54,75.54,0,0,1,175.41,157.11Z" transform="translate(-9.69 -0.03)"/><path class="cls-18" d="M187.06,140.59l-28.74-14.75a50.72,50.72,0,0,0,3.71-6.38l29.23,12.59A84.45,84.45,0,0,1,187.06,140.59Z" transform="translate(-9.69 -0.03)"/><path class="cls-3" d="M127,153.69l-2-3.88a19.61,19.61,0,0,1-4,2.24,34.22,34.22,0,0,1-4.72,1.64l9.21,33.13s6.64-1.7,9.46-2.68l-11.3-29.37S123.9,155.42,127,153.69Z" transform="translate(-9.69 -0.03)"/><path class="cls-3" d="M121.08,152.05l-1.16-4a40.31,40.31,0,0,1-4.78,1.78A36.2,36.2,0,0,1,110,151l5,37.58s7.2-.88,10.59-1.78l-9.21-33.13A20.53,20.53,0,0,0,121.08,152.05Z" transform="translate(-9.69 -0.03)"/><path class="cls-11" d="M115.14,149.81l-.93-3.55A31,31,0,0,1,100.47,148v9.81l4.73-.26-.65,31.59a53.52,53.52,0,0,0,10.43-.57L110,151S114.41,150.05,115.14,149.81Z" transform="translate(-9.69 -0.03)"/><path class="cls-22" d="M87.45,156.06l3.82-12.89a66,66,0,0,0,8.63,1.17,38.38,38.38,0,0,0,7.11-.12V148s-4.11.07-6.54.07v9.81l-3.5-.26-1.28,31.15s-6-.62-9.46-1.37l5-30.85A16.06,16.06,0,0,1,87.45,156.06Z" transform="translate(-9.69 -0.03)"/><path class="cls-2" d="M99.9,144.34l.57-3.47a69.57,69.57,0,0,1-7-.88c-3.11-.56-6.45-1.44-8.12-2.78l-19,43.92a101.34,101.34,0,0,0,9.71,3.67L84.27,155a14.16,14.16,0,0,0,3.18,1l3.82-12.89A83,83,0,0,0,99.9,144.34Z" transform="translate(-9.69 -0.03)"/><path class="cls-2" d="M93.43,140l.68-3.27s-9-1.31-12.07-4.87L57.69,176.71a95.22,95.22,0,0,0,8.73,4.42l18.93-43.92A46,46,0,0,0,93.43,140Z" transform="translate(-9.69 -0.03)"/><path class="cls-23" d="M87.52,135.06l1.25-3.21s-5.42-2.12-8.23-5.41L49.19,171.22a72.91,72.91,0,0,0,8.5,5.49l24.39-44.86A13.67,13.67,0,0,0,87.52,135.06Z" transform="translate(-9.69 -0.03)"/><path class="cls-10" d="M143.8,143.17l-2.28-2.58a21.25,21.25,0,0,1-7.35,5.67l18.59,29.68a58.84,58.84,0,0,0,8.12-5.42L141,145.4Z" transform="translate(-9.69 -0.03)"/><path class="cls-8" d="M160.34,122.64l-3.65-1.31s1.09-2.38,2.19-4.76c.78-1.71,1.58-3.41,2-4.23l33.81,10.3s-1.83,5.79-3.46,9.41L162,119.46Z" transform="translate(-9.69 -0.03)"/><path class="cls-23" d="M157.87,110.43,114.45,98.2s-1.55,3.76-7,7.68l1,3.11a27.65,27.65,0,0,0,6.86-4.67l38,29.39,2.14-2.38,26.63,17.37s3.4-5,5.06-8.11L158.4,125.84a19.27,19.27,0,0,0,2-3.2l-3.71-1.31s1.11-2.44,2.19-4.76L156,115.45A26.46,26.46,0,0,0,157.87,110.43Z" transform="translate(-9.69 -0.03)"/><path class="cls-17" d="M48.24,117.64,86.17,102.8s-2.83-6.2-1.48-11.47H80.77s-1.21,5.63.17,8.2L12.69,115.94a80.33,80.33,0,0,0,2.46,9.16L45.5,113.41Z" transform="translate(-9.69 -0.03)"/><path class="cls-23" d="M58.05,134l31.64-26.23s-2.75-3-3.49-5l-38,14.87,2.45,3.64-3.52,2.78,1.84,3L23.57,143.23s2.8,4.69,5.2,7.79l26.07-20.81A20.4,20.4,0,0,0,58.05,134Z" transform="translate(-9.69 -0.03)"/><path class="cls-23" d="M84,129.37l10.85-17.86a11.27,11.27,0,0,1-5.18-3.74L58.05,134,62,137.22l-3.07,2.61,2.46,2.45L42,165.48s3.81,3.39,7.16,5.75l31.35-44.78Z" transform="translate(-9.69 -0.03)"/><path class="cls-7" d="M158.93,72.27h-.17l-3.21.83s-12.62-9.86-28.86-10.87l1.88-2.77,3.53,2.77,2.15-2.4h0l3.54,3.22L140,61l3,3.23,2.58-1.74.09.1,3.13,4,2.7-1.66,2.89,4.45,2.22-1Z" transform="translate(-9.69 -0.03)"/><path class="cls-15" d="M137.61,144.22,105.2,110.47a41.59,41.59,0,0,0,10.07-6.15l38,29.39-2.94,2.7,25.12,20.7a51,51,0,0,1-6.76,6.94l-22-23.18-2.86,2.3-2.28-2.58A15.48,15.48,0,0,1,137.61,144.22Z" transform="translate(-9.69 -0.03)"/><path class="cls-24" d="M176.31,50l-.24-.11L176,49.8l.29.14A.13.13,0,0,1,176.31,50Z" transform="translate(-9.69 -0.03)"/><path class="cls-24" d="M194.58,87.89c-1.52.65-3.6-1.1-4.65-3.91a8.83,8.83,0,0,1-.53-2.2v-.3c-.15-1.73.3-3.17,1.25-3.69a.6.6,0,0,1,.15-.09,1.76,1.76,0,0,1,1.06-.09l.26.07a5.25,5.25,0,0,1,2.57,2.46,9.9,9.9,0,0,1,.7,1.47C196.46,84.42,196.09,87.23,194.58,87.89Z" transform="translate(-9.69 -0.03)"/><path class="cls-3" d="M194.54,79.84a5.5,5.5,0,0,0-2.85-2.46l-.27-.07a10.89,10.89,0,0,0-.64-4.73c-.06-.18-.13-.35-.2-.53a13.19,13.19,0,0,0-.94-1.88h.05a1.79,1.79,0,0,1,.59-.39c1.24-.49,2.81.39,4,2.07a8.56,8.56,0,0,1,1,1.83C196.39,76.38,196,79.1,194.54,79.84Z" transform="translate(-9.69 -0.03)"/><path class="cls-12" d="M191.44,77.31a2,2,0,0,0-1.14.09.51.51,0,0,0-.16.09c-1,.52-1.51,2-1.35,3.69-1.4.36-3-.34-4.44-1.76a11.79,11.79,0,0,1-2.23-3.6,12.85,12.85,0,0,1-.62-2c-.56-2.53-.23-4.85.88-6.15a3.08,3.08,0,0,1,1.18-.87,3,3,0,0,1,1.66-.16,4.63,4.63,0,0,1,1.61.61h0a4.81,4.81,0,0,1,.6.4,7.85,7.85,0,0,1,.93.8l.12.13a10.42,10.42,0,0,1,1.21,1.59,13.19,13.19,0,0,1,.94,1.88c.07.18.14.35.2.53A10.87,10.87,0,0,1,191.44,77.31Z" transform="translate(-9.69 -0.03)"/><path class="cls-25" d="M187.19,67.39a4.81,4.81,0,0,0-.6-.4h0a7.42,7.42,0,0,0-3-.19,3.08,3.08,0,0,0-1.18.87c-1.11,1.3-1.44,3.62-.88,6.15a12.85,12.85,0,0,0,.62,2,11.79,11.79,0,0,0,2.23,3.6,11.51,11.51,0,0,1-2.48-3.86,12.85,12.85,0,0,1-.62-2A9.48,9.48,0,0,1,178,70.35h0c-.18-.28-.36-.57-.52-.87a11.51,11.51,0,0,1-.75-1.54,11.75,11.75,0,0,1-.87-6,5.61,5.61,0,0,1,.23-1.08A4.55,4.55,0,0,1,178.29,58a3.76,3.76,0,0,1,2.89.11l.1,0c.13,0,.26.12.4.19a10.34,10.34,0,0,1,4.22,4.72h0c0,.09.09.17.13.26s.2.44.29.66a11.86,11.86,0,0,1,.62,2A9.55,9.55,0,0,1,187.19,67.39Z" transform="translate(-9.69 -0.03)"/><path class="cls-25" d="M195.29,69a4.1,4.1,0,0,1-.06.49,5.21,5.21,0,0,1-.93,2.3c-1.19-1.68-2.76-2.56-4-2.07a1.79,1.79,0,0,0-.59.39,9.15,9.15,0,0,0-1.22-1.55l-.12-.13a7.91,7.91,0,0,0-1.18-1.06,9.06,9.06,0,0,0-.25-1.38,11.86,11.86,0,0,0-.62-2c-.09-.22-.19-.44-.29-.66a1.83,1.83,0,0,0-.13-.26h0c0-2.53.84-4.53,2.42-5a2.65,2.65,0,0,1,1.37-.07h0a4,4,0,0,1,1.76.84c.18.14.36.29.53.45H192a11.42,11.42,0,0,1,2.78,4.76A11.53,11.53,0,0,1,195.29,69Z" transform="translate(-9.69 -0.03)"/><path class="cls-26" d="M189.69,58a2.28,2.28,0,0,0-1.32,0c-1.58.5-2.45,2.5-2.42,5a10.38,10.38,0,0,0-4.26-4.61c-.14-.07-.27-.14-.4-.19l-.1-.05a23.65,23.65,0,0,1-.28-4.12,3.71,3.71,0,0,1,1.34-1.76,2.73,2.73,0,0,1,.71-.34h0c1.38-.37,3.06.2,4.7,1.48a7.75,7.75,0,0,1,1.21,1c.16.18.31.37.46.56a12.3,12.3,0,0,1,2,4A4.05,4.05,0,0,0,189.69,58Z" transform="translate(-9.69 -0.03)"/><path class="cls-11" d="M177.92,70.34h0a4.62,4.62,0,0,1-4.25.47,11.89,11.89,0,0,1-5.25-3.45,14,14,0,0,1-1.49-1.93,9.88,9.88,0,0,1-.81-1.46c-1.2-2.59-1.18-5.13.28-6.48a3.74,3.74,0,0,1,2.58-.92h.64a4.5,4.5,0,0,1,.64.11h.1a4.77,4.77,0,0,1,.51.13l.43.15h.09c.26.1.53.21.8.34l.29.14c.22.11.43.22.64.35s.38.24.58.37l.07.05.69.51a14.39,14.39,0,0,1,1.62,1.5l.08.09a4,4,0,0,0-.15.45,5.61,5.61,0,0,0-.23,1.08,11.75,11.75,0,0,0,.87,6,11.51,11.51,0,0,0,.75,1.54A5.67,5.67,0,0,0,177.92,70.34Z" transform="translate(-9.69 -0.03)"/><path class="cls-2" d="M181.18,58.15a3.77,3.77,0,0,0-2.89-.15,3.93,3.93,0,0,0-2.13,2.37l-.08-.09a14.39,14.39,0,0,0-1.62-1.5l-.69-.51-.07-.05c-.2-.13-.39-.26-.58-.37s-.42-.24-.64-.35l-.29-.14c-.27-.13-.54-.24-.8-.34a1.86,1.86,0,0,1-.1-.25,8.89,8.89,0,0,1-.64-2.48v-.07a4.66,4.66,0,0,1,1.17-4h0l.16-.12.25-.19h0a4,4,0,0,1,.46-.24.8.8,0,0,1,.25-.11,3.75,3.75,0,0,1,1.76-.12,5,5,0,0,1,1.26.36h0l.06.09.24.11a6.38,6.38,0,0,1,.74.37c.23.14.46.29.69.46l.08.06.35.29a12.24,12.24,0,0,1,1.74,2.43L180,54h0a5.87,5.87,0,0,0,.09,1.32A9.8,9.8,0,0,0,181.18,58.15Z" transform="translate(-9.69 -0.03)"/><path class="cls-14" d="M188.38,50.83a13.71,13.71,0,0,1-.42,1.52c-.05.14-.11.27-.17.4s-3.49-1.78-4.88-1.34h0a2.45,2.45,0,0,0-.81.36,3.7,3.7,0,0,0-1.41,1.74c0,.08-.06.15-.09.24a3.18,3.18,0,0,1-.64-.63c-.38-.7-1.51-2.51-2.22-2.74-.28-.2-.55-.42-.84-.59s-.45-.25-.68-.36a14.81,14.81,0,0,0-2-5.61h0c-.08-.15-.16-.29-.25-.43.05-.32.45-2.18.65-2.74a4,4,0,0,1,1.59-2,3.6,3.6,0,0,1,1.62-.55h0a1.21,1.21,0,0,1,.38,0h0a3.94,3.94,0,0,1,.77,0,5.53,5.53,0,0,1,1.28.29h0a11,11,0,0,1,4.15,2.79,15,15,0,0,1,1.77,2.21,11.4,11.4,0,0,1,.71,1.22A11,11,0,0,1,188.38,50.83Z" transform="translate(-9.69 -0.03)"/><path class="cls-2" d="M175.89,49.71l-.29-.14h0a5,5,0,0,0-1.26-.36,3.75,3.75,0,0,0-1.76.12.8.8,0,0,0-.25.11,4,4,0,0,0-.46.24h0l-.25.19-.16.12h0a4.66,4.66,0,0,0-1.17,4v.07a8.89,8.89,0,0,0,.64,2.48,8.69,8.69,0,0,1-3.35-.86,16.15,16.15,0,0,1-6-5c-.11-.13-.21-.27-.31-.41a16.55,16.55,0,0,1-2.2-4.18,5.89,5.89,0,0,1-.21-.59,11.9,11.9,0,0,1-.56-2.7h0c-.21-2.31.4-4.28,1.86-5.39a1.3,1.3,0,0,1,.31-.26,4.85,4.85,0,0,1,2.43-.72h.62a7,7,0,0,1,1.21.16,13.22,13.22,0,0,1,6,3.49A19.57,19.57,0,0,1,173,42.7a15.17,15.17,0,0,0,.88,1.37h0A14.91,14.91,0,0,1,175.89,49.71Z" transform="translate(-9.69 -0.03)"/><path class="cls-27" d="M179.88,37.29a1,1,0,0,0-.13-.16h0l-.06-.13-.09-.1-.22-.26a42.55,42.55,0,0,0-2.44-4.75,16.27,16.27,0,0,0-2-2.38,11.42,11.42,0,0,0-6.61-3.43h-.64a4.68,4.68,0,0,0-2.29.56,1.29,1.29,0,0,0-.3.22c-1.92,1.29-2.41,4-1.49,7.08a1.17,1.17,0,0,0,.12.39v.14a13.3,13.3,0,0,0,.9,2.09A14.12,14.12,0,0,1,171,40a20.47,20.47,0,0,1,2.39,2.62c.23.31.46.62.67.94a2.87,2.87,0,0,1,.3-.91,6,6,0,0,1,.38-1.83,4.06,4.06,0,0,1,1.4-1.82,1.1,1.1,0,0,1,.28-.2,4,4,0,0,1,1.7-.55h.46a8.08,8.08,0,0,1,2.29.33C180.57,38.13,180.23,37.71,179.88,37.29Z" transform="translate(-9.69 -0.03)"/><path class="cls-6" d="M91.69,109.79l2.39-2.71s3.17,4,11.09,3.39l32.41,33.75a12.74,12.74,0,0,1-3.44,2l18.59,29.68s-5.26,3-8.15,4.33L130.18,152l-2.92,1.63-2.2-3.78-4,2.24-1.16-4-4.78,1.78-.93-3.55A30.2,30.2,0,0,1,107,148v-3.74s-5.48.24-7.11.12l.57-3.47s-6.49-.78-7-.88l.68-3.27s-5.26-1.18-6.59-1.66l1.25-3.21A25.54,25.54,0,0,1,84,129.43l10.85-17.86a21.74,21.74,0,0,1-3.2-1.78l2.39-2.71" transform="translate(-9.69 -0.03)"/></g></g></svg>